<svg width="22" height="26" viewBox="0 0 22 26" fill="none" xmlns="http://www.w3.org/2000/svg">
<path d="M13.8784 2.35C15.0864 2.35 15.9697 2.03699 16.764 1.62908C16.7955 1.66921 16.8297 1.71399 16.866 1.76354C17.0813 2.05671 17.3762 2.51725 17.6738 3.16745C18.268 4.46593 18.8784 6.53225 18.8784 9.55C18.8784 12.519 17.9211 14.6911 16.4496 16.2754C14.9991 17.837 13.0195 18.8586 10.8784 19.48C8.73734 18.8586 6.7577 17.837 5.30727 16.2754C3.83578 14.6911 2.87842 12.519 2.87842 9.55C2.87842 6.53225 3.4888 4.46593 4.08307 3.16745C4.38064 2.51725 4.67549 2.05671 4.89079 1.76354C4.92718 1.71399 4.96131 1.66921 4.99281 1.62908C5.78716 2.03699 6.67047 2.35 7.87842 2.35C8.60582 2.35 9.42299 2.11236 10.0258 1.89548C10.3341 1.78454 10.6004 1.67381 10.7898 1.59069C10.8215 1.57679 10.8511 1.56364 10.8784 1.55137C10.9057 1.56364 10.9353 1.57679 10.967 1.59069C11.1565 1.67381 11.4227 1.78454 11.731 1.89548C12.3338 2.11236 13.151 2.35 13.8784 2.35Z" fill="#295EA3" stroke="#B0B5BF"/>
<path d="M17.3049 2.39807C17.6925 3.05865 18.1487 4.06789 18.46 5.5H3.29664C3.60799 4.06789 4.06418 3.05864 4.45171 2.39806C4.66075 2.04173 4.85057 1.78557 4.98831 1.61831C5.77216 2.00749 6.67117 2.35 7.8783 2.35C8.60051 2.35 9.41788 2.11222 10.0213 1.8956C10.3302 1.78473 10.5973 1.67408 10.7875 1.59103C10.82 1.57681 10.8504 1.56339 10.8783 1.55088C10.9063 1.56339 10.9366 1.57681 10.9692 1.59102C11.1593 1.67407 11.4264 1.78473 11.7353 1.8956C12.3387 2.11222 13.1561 2.35 13.8783 2.35C15.0854 2.35 15.9844 2.00749 16.7683 1.6183C16.906 1.78556 17.0959 2.04173 17.3049 2.39807Z" fill="#A83939" stroke="#B0B5BF"/>
<rect x="1.87842" y="15.5" width="18" height="9" fill="#295EA3" stroke="#B0B5BF"/>
<path d="M8.10326 18.32H6.10326V19.76H7.84726V20.608H6.10326V22.136H8.24726V23H4.92726V17.464H8.23126L8.10326 18.32ZM13.1538 23H11.8578L10.8258 20.808L9.80982 23H8.55382L10.1298 20.056L8.68182 17.464H9.96982L10.8418 19.312L11.7538 17.464H13.0018L11.5378 20.016L13.1538 23ZM17.2681 18.384H15.8681V23H14.6921V18.384H13.2201V17.464H17.3961L17.2681 18.384Z" fill="#B0B5BF"/>
</svg>
