<svg width="20" height="27" viewBox="0 0 20 27" fill="none" xmlns="http://www.w3.org/2000/svg">
<path d="M13.4514 2.59805C14.6594 2.59805 15.5427 2.28503 16.337 1.87713C16.3685 1.91725 16.4027 1.96204 16.439 2.01158C16.6543 2.30476 16.9492 2.7653 17.2468 3.4155C17.841 4.71398 18.4514 6.7803 18.4514 9.79805C18.4514 12.767 17.4941 14.9391 16.0226 16.5234C14.5721 18.085 12.5925 19.1067 10.4514 19.728C8.31034 19.1067 6.3307 18.085 4.88027 16.5234C3.40878 14.9391 2.45142 12.767 2.45142 9.79805C2.45142 6.7803 3.06179 4.71398 3.65606 3.4155C3.95364 2.7653 4.24849 2.30476 4.46379 2.01158C4.50018 1.96204 4.53431 1.91725 4.5658 1.87713C5.36015 2.28504 6.24347 2.59805 7.45142 2.59805C8.17882 2.59805 8.99599 2.36041 9.59881 2.14352C9.90715 2.03259 10.1734 1.92185 10.3628 1.83873C10.3945 1.82484 10.4241 1.81169 10.4514 1.79942C10.4787 1.81169 10.5083 1.82484 10.54 1.83873C10.7295 1.92185 10.9957 2.03259 11.304 2.14352C11.9068 2.36041 12.724 2.59805 13.4514 2.59805Z" fill="#277567" stroke="#B0B5BF"/>
<path d="M16.8779 2.64612C17.2655 3.30669 17.7217 4.31594 18.033 5.74805H2.86964C3.18099 4.31593 3.63717 3.30669 4.0247 2.64611C4.23375 2.28978 4.42357 2.03361 4.56131 1.86636C5.34516 2.25554 6.24417 2.59805 7.45129 2.59805C8.17351 2.59805 8.99088 2.36027 9.59435 2.14364C9.90319 2.03278 10.1703 1.92212 10.3605 1.83907C10.393 1.82486 10.4234 1.81143 10.4513 1.79893C10.4793 1.81143 10.5096 1.82486 10.5422 1.83907C10.7323 1.92212 10.9994 2.03278 11.3083 2.14364C11.9117 2.36027 12.7291 2.59805 13.4513 2.59805C14.6584 2.59805 15.5574 2.25553 16.3413 1.86635C16.479 2.03361 16.6689 2.28977 16.8779 2.64612Z" fill="#277567" stroke="#B0B5BF"/>
<rect x="3.45142" y="15.748" width="14" height="9" fill="#277567" stroke="#B0B5BF"/>
<path d="M8.94945 20.32C9.32278 20.3894 9.62411 20.5254 9.85345 20.728C10.0881 20.9254 10.2054 21.2294 10.2054 21.64C10.2054 22.2214 9.99745 22.6347 9.58145 22.88C9.16545 23.1254 8.58678 23.248 7.84545 23.248H6.11745V17.712H7.62945C8.38678 17.712 8.96545 17.824 9.36545 18.048C9.76545 18.272 9.96545 18.632 9.96545 19.128C9.96545 19.4534 9.86678 19.7174 9.66945 19.92C9.47745 20.1174 9.23745 20.2507 8.94945 20.32ZM7.29345 18.56V19.96H7.86945C8.15745 19.96 8.37878 19.9014 8.53345 19.784C8.68811 19.6614 8.76545 19.4774 8.76545 19.232C8.76545 18.9867 8.68278 18.8134 8.51745 18.712C8.35211 18.6107 8.09345 18.56 7.74145 18.56H7.29345ZM7.85345 22.376C8.22145 22.376 8.50145 22.3227 8.69345 22.216C8.88545 22.104 8.98145 21.896 8.98145 21.592C8.98145 21.0374 8.64011 20.76 7.95745 20.76H7.29345V22.376H7.85345ZM12.8153 21.08H12.2153V23.248H11.0393V17.712H12.7673C13.5087 17.712 14.066 17.8507 14.4393 18.128C14.8127 18.4 14.9993 18.8134 14.9993 19.368C14.9993 19.7307 14.9087 20.0294 14.7273 20.264C14.5513 20.4987 14.2767 20.6987 13.9033 20.864L15.3353 23.248H13.9993L12.8153 21.08ZM12.2153 20.248H12.8313C13.146 20.248 13.3833 20.1787 13.5433 20.04C13.7033 19.896 13.7833 19.672 13.7833 19.368C13.7833 19.0854 13.698 18.88 13.5273 18.752C13.362 18.6187 13.1007 18.552 12.7433 18.552H12.2153V20.248Z" fill="#B0B5BF"/>
</svg>
