<svg width="19" height="18" viewBox="0 0 19 18" fill="none" xmlns="http://www.w3.org/2000/svg">
<g id="usa_a_RI_01">
<g id="USA / usa_a_RI_01">
<g id="usa_a_base">
<g id="stretchable-items">
<rect id="shape01" x="1.5" y="1.5" width="16" height="15" fill="#B0B5BF" stroke="#4E545C"/>
</g>
<g id="non-stretchable-items">
<path id="RI" d="M8.77627 5.10105H8.40127V6.45605H7.66627V2.99605H8.74627C9.2096 2.99605 9.55794 3.08272 9.79127 3.25605C10.0246 3.42605 10.1413 3.68439 10.1413 4.03105C10.1413 4.25772 10.0846 4.44439 9.97127 4.59105C9.86127 4.73772 9.6896 4.86272 9.45627 4.96605L10.3513 6.45605H9.51627L8.77627 5.10105ZM8.40127 4.58105H8.78627C8.98294 4.58105 9.13127 4.53772 9.23127 4.45105C9.33127 4.36105 9.38127 4.22105 9.38127 4.03105C9.38127 3.85439 9.32794 3.72605 9.22127 3.64605C9.11794 3.56272 8.9546 3.52105 8.73127 3.52105H8.40127V4.58105ZM11.4726 6.45605H10.7376V2.99605H11.4726V6.45605Z" fill="#4E545C"/>
</g>
</g>
</g>
</g>
</svg>
