<svg width="19" height="20" viewBox="0 0 19 20" fill="none" xmlns="http://www.w3.org/2000/svg">
<g id="usa_MD_01">
<g id="USA / usa_MD_01">
<g id="usa_MD_base">
<g id="stretchable-items">
<rect id="shape02" x="1.5" y="1.5" width="16" height="17" fill="#B0B5BF" stroke="#4E545C"/>
<rect id="shape01" x="1.5" y="1.5" width="16" height="7" fill="#B0B5BF" stroke="#4E545C"/>
</g>
<g id="non-stretchable-items">
<path id="MD" d="M9.40495 7H8.56975L8.48275 5.3702C8.45568 4.883 8.44215 4.46927 8.44215 4.129C8.44215 3.94727 8.44408 3.8158 8.44795 3.7346L7.76935 6.5708H6.96315L6.23815 3.7288C6.25361 3.96467 6.26135 4.22953 6.26135 4.5234C6.26135 4.8366 6.25361 5.12467 6.23815 5.3876L6.15115 7H5.32175L5.63495 2.9864H6.71955L7.38075 5.753L8.00135 2.9864H9.09755L9.40495 7ZM11.6112 2.9864C12.2376 2.9864 12.7383 3.12947 13.1134 3.4156C13.4923 3.69787 13.6818 4.21793 13.6818 4.9758C13.6818 5.7182 13.4962 6.24213 13.125 6.5476C12.7577 6.8492 12.2859 7 11.7098 7H10.5614V2.9864H11.6112ZM11.414 3.6128V6.3736H11.762C12.0907 6.3736 12.3439 6.27307 12.5218 6.072C12.7035 5.86707 12.7944 5.50167 12.7944 4.9758C12.7944 4.61233 12.748 4.33007 12.6552 4.129C12.5663 3.92793 12.4464 3.7926 12.2956 3.723C12.1448 3.64953 11.9611 3.6128 11.7446 3.6128H11.414Z" fill="#4E545C"/>
</g>
</g>
</g>
</g>
</svg>
