<svg width="19" height="18" viewBox="0 0 19 18" fill="none" xmlns="http://www.w3.org/2000/svg">
<g id="usa_a_MT_01">
<g id="USA / usa_a_MT_01">
<g id="usa_a_base">
<g id="stretchable-items">
<rect id="shape01" x="1.5" y="1.5" width="16" height="15" fill="#B0B5BF" stroke="#4E545C"/>
</g>
<g id="non-stretchable-items">
<path id="MT" d="M10.0374 6.45605H9.31738L9.24238 5.05105C9.21905 4.63105 9.20738 4.27439 9.20738 3.98105C9.20738 3.82439 9.20905 3.71105 9.21238 3.64105L8.62738 6.08605H7.93238L7.30738 3.63605C7.32072 3.83939 7.32738 4.06772 7.32738 4.32105C7.32738 4.59105 7.32072 4.83939 7.30738 5.06605L7.23238 6.45605H6.51738L6.78738 2.99605H7.72238L8.29238 5.38105L8.82738 2.99605H9.77238L10.0374 6.45605ZM12.7353 3.57105H11.8603V6.45605H11.1253V3.57105H10.2053V2.99605H12.8153L12.7353 3.57105Z" fill="#4E545C"/>
</g>
</g>
</g>
</g>
</svg>
