<svg width="19" height="20" viewBox="0 0 19 20" fill="none" xmlns="http://www.w3.org/2000/svg">
<g id="usa_MN_01">
<g id="USA / usa_MN_01">
<g id="usa_MN_base">
<g id="stretchable-items">
<rect id="background" x="1.5" y="1.5" width="16" height="17" fill="#295EA3" stroke="#CCA05A"/>
<rect id="rectangle" x="1" y="1" width="17" height="6" fill="#CCA05A"/>
</g>
<g id="non-stretchable-items">
<path id="MN" d="M9.58987 6H8.86987L8.79487 4.595C8.77154 4.175 8.75987 3.81833 8.75987 3.525C8.75987 3.36833 8.76154 3.255 8.76487 3.185L8.17987 5.63H7.48487L6.85987 3.18C6.87321 3.38333 6.87987 3.61167 6.87987 3.865C6.87987 4.135 6.87321 4.38333 6.85987 4.61L6.78487 6H6.06987L6.33987 2.54H7.27487L7.84487 4.925L8.37987 2.54H9.32487L9.58987 6ZM12.7658 6H11.8208L10.7208 3.255C10.7508 3.49167 10.7741 3.715 10.7908 3.925C10.8108 4.13167 10.8208 4.375 10.8208 4.655V6H10.1558V2.54H11.0808L12.2008 5.29C12.1341 4.84333 12.1008 4.43333 12.1008 4.06V2.54H12.7658V6Z" fill="#4E545C"/>
</g>
</g>
</g>
</g>
</svg>
