<svg width="19" height="27" viewBox="0 0 19 27" fill="none" xmlns="http://www.w3.org/2000/svg">
<path d="M3.51237 2.26354C3.54876 2.21399 3.58289 2.16921 3.61439 2.12908C4.40874 2.53699 5.29205 2.85 6.5 2.85C7.2274 2.85 8.04457 2.61236 8.6474 2.39548C8.95573 2.28454 9.22196 2.17381 9.41142 2.09069C9.4431 2.07679 9.47267 2.06364 9.5 2.05137C9.52732 2.06364 9.5569 2.07679 9.58858 2.09069C9.77804 2.17381 10.0443 2.28454 10.3526 2.39548C10.9554 2.61236 11.7726 2.85 12.5 2.85C13.7079 2.85 14.5913 2.53699 15.3856 2.12908C15.4171 2.16921 15.4512 2.21399 15.4876 2.26354C15.7029 2.55671 15.9978 3.01725 16.2954 3.66745C16.8896 4.96593 17.5 7.03225 17.5 10.05C17.5 13.019 16.5426 15.1911 15.0711 16.7754C13.6207 18.337 11.6411 19.3586 9.5 19.98C7.35893 19.3586 5.37928 18.337 3.92886 16.7754C2.45737 15.1911 1.5 13.019 1.5 10.05C1.5 7.03225 2.11038 4.96593 2.70465 3.66745C3.00222 3.01725 3.29707 2.55671 3.51237 2.26354Z" fill="#5397F0" stroke="white"/>
<path d="M15.9265 2.89807C16.314 3.55865 16.7702 4.56789 17.0816 6H1.91822C2.22957 4.56789 2.68576 3.55864 3.07329 2.89806C3.28233 2.54173 3.47216 2.28557 3.60989 2.11831C4.39374 2.50749 5.29275 2.85 6.49988 2.85C7.2221 2.85 8.03946 2.61222 8.64293 2.3956C8.95177 2.28473 9.21887 2.17408 9.40904 2.09103C9.44159 2.07681 9.47193 2.06339 9.4999 2.05088C9.52787 2.06339 9.55821 2.07681 9.59076 2.09102C9.78093 2.17407 10.048 2.28473 10.3568 2.3956C10.9603 2.61222 11.7777 2.85 12.4999 2.85C13.707 2.85 14.606 2.50749 15.3899 2.11831C15.5276 2.28556 15.7174 2.54173 15.9265 2.89807Z" fill="#F56C6C" stroke="white"/>
<rect x="1.5" y="16" width="16" height="9" fill="#5397F0" stroke="white"/>
<path d="M6.54766 22.26H4.81166L4.49966 23.5H3.27566L4.97966 17.964H6.41166L8.10766 23.5H6.85966L6.54766 22.26ZM6.32366 21.388L5.67566 18.836L5.03566 21.388H6.32366ZM9.79516 22.556H11.9872L11.8592 23.5H8.61916V17.964H9.79516V22.556ZM15.5069 18.884H14.1069V23.5H12.9309V18.884H11.4589V17.964H15.6349L15.5069 18.884Z" fill="white"/>
</svg>
