<svg width="22" height="27" viewBox="0 0 22 27" fill="none" xmlns="http://www.w3.org/2000/svg">
<path d="M4.93962 2.26354C4.97601 2.21399 5.01014 2.16921 5.04163 2.12908C5.83598 2.53699 6.7193 2.85 7.92725 2.85C8.65465 2.85 9.47182 2.61236 10.0746 2.39548C10.383 2.28454 10.6492 2.17381 10.8387 2.09069C10.8703 2.07679 10.8999 2.06364 10.9272 2.05137C10.9546 2.06364 10.9841 2.07679 11.0158 2.09069C11.2053 2.17381 11.4715 2.28454 11.7799 2.39548C12.3827 2.61236 13.1998 2.85 13.9272 2.85C15.1352 2.85 16.0185 2.53699 16.8129 2.12908C16.8444 2.16921 16.8785 2.21399 16.9149 2.26354C17.1302 2.55671 17.425 3.01725 17.7226 3.66745C18.3169 4.96593 18.9272 7.03225 18.9272 10.05C18.9272 13.019 17.9699 15.1911 16.4984 16.7754C15.048 18.337 13.0683 19.3586 10.9272 19.98C8.78617 19.3586 6.80653 18.337 5.3561 16.7754C3.88461 15.1911 2.92725 13.019 2.92725 10.05C2.92725 7.03225 3.53762 4.96593 4.13189 3.66745C4.42947 3.01725 4.72432 2.55671 4.93962 2.26354Z" fill="#5397F0" stroke="white"/>
<path d="M17.3537 2.89807C17.7413 3.55865 18.1975 4.56789 18.5088 6H3.34547C3.65682 4.56789 4.113 3.55864 4.50053 2.89806C4.70958 2.54173 4.8994 2.28557 5.03714 2.11831C5.82099 2.50749 6.72 2.85 7.92712 2.85C8.64934 2.85 9.46671 2.61222 10.0702 2.3956C10.379 2.28473 10.6461 2.17408 10.8363 2.09103C10.8688 2.07681 10.8992 2.06339 10.9271 2.05088C10.9551 2.06339 10.9855 2.07681 11.018 2.09102C11.2082 2.17407 11.4753 2.28473 11.7841 2.3956C12.3876 2.61222 13.2049 2.85 13.9271 2.85C15.1343 2.85 16.0333 2.50749 16.8171 2.11831C16.9549 2.28556 17.1447 2.54173 17.3537 2.89807Z" fill="#F56C6C" stroke="white"/>
<rect x="1.92725" y="16" width="18" height="9" fill="#5397F0" stroke="white"/>
<path d="M7.26512 20.572C7.63845 20.6413 7.93979 20.7773 8.16912 20.98C8.40379 21.1773 8.52112 21.4813 8.52112 21.892C8.52112 22.4733 8.31312 22.8867 7.89712 23.132C7.48112 23.3773 6.90245 23.5 6.16112 23.5H4.43312V17.964H5.94512C6.70245 17.964 7.28112 18.076 7.68112 18.3C8.08112 18.524 8.28112 18.884 8.28112 19.38C8.28112 19.7053 8.18245 19.9693 7.98512 20.172C7.79312 20.3693 7.55312 20.5027 7.26512 20.572ZM5.60912 18.812V20.212H6.18512C6.47312 20.212 6.69445 20.1533 6.84912 20.036C7.00379 19.9133 7.08112 19.7293 7.08112 19.484C7.08112 19.2387 6.99845 19.0653 6.83312 18.964C6.66779 18.8627 6.40912 18.812 6.05712 18.812H5.60912ZM6.16912 22.628C6.53712 22.628 6.81712 22.5747 7.00912 22.468C7.20112 22.356 7.29712 22.148 7.29712 21.844C7.29712 21.2893 6.95579 21.012 6.27312 21.012H5.60912V22.628H6.16912ZM11.4722 21.412V23.5H10.2962V21.42L8.52025 17.964H9.80825L10.9122 20.476L12.0082 17.964H13.2482L11.4722 21.412ZM15.5123 17.964C16.2323 17.964 16.7896 18.1133 17.1843 18.412C17.5843 18.7107 17.7843 19.156 17.7843 19.748C17.7843 20.3667 17.587 20.8333 17.1923 21.148C16.7976 21.4573 16.2696 21.612 15.6083 21.612H14.9763V23.5H13.8003V17.964H15.5123ZM15.5123 20.748C15.8536 20.748 16.115 20.6707 16.2963 20.516C16.4776 20.3613 16.5683 20.1053 16.5683 19.748C16.5683 19.124 16.211 18.812 15.4963 18.812H14.9763V20.748H15.5123Z" fill="white"/>
</svg>
