<svg width="26" height="27" viewBox="0 0 26 27" fill="none" xmlns="http://www.w3.org/2000/svg">
<path d="M7.26945 2.26354C7.30584 2.21399 7.33997 2.16921 7.37147 2.12908C8.16582 2.53699 9.04913 2.85 10.2571 2.85C10.9845 2.85 11.8017 2.61236 12.4045 2.39548C12.7128 2.28454 12.979 2.17381 13.1685 2.09069C13.2002 2.07679 13.2298 2.06364 13.2571 2.05137C13.2844 2.06364 13.314 2.07679 13.3457 2.09069C13.5351 2.17381 13.8014 2.28454 14.1097 2.39548C14.7125 2.61236 15.5297 2.85 16.2571 2.85C17.465 2.85 18.3483 2.53699 19.1427 2.12908C19.1742 2.16921 19.2083 2.21399 19.2447 2.26354C19.46 2.55671 19.7549 3.01725 20.0524 3.66745C20.6467 4.96593 21.2571 7.03225 21.2571 10.05C21.2571 13.019 20.2997 15.1911 18.8282 16.7754C17.3778 18.337 15.3982 19.3586 13.2571 19.98C11.116 19.3586 9.13636 18.337 7.68594 16.7754C6.21445 15.1911 5.25708 13.019 5.25708 10.05C5.25708 7.03225 5.86746 4.96593 6.46173 3.66745C6.7593 3.01725 7.05415 2.55671 7.26945 2.26354Z" fill="#5397F0" stroke="white"/>
<path d="M19.6836 2.89807C20.0711 3.55865 20.5273 4.56789 20.8387 6H5.6753C5.98665 4.56789 6.44284 3.55864 6.83037 2.89806C7.03941 2.54173 7.22924 2.28557 7.36697 2.11831C8.15082 2.50749 9.04983 2.85 10.257 2.85C10.9792 2.85 11.7965 2.61222 12.4 2.3956C12.7089 2.28473 12.9759 2.17408 13.1661 2.09103C13.1987 2.07681 13.229 2.06339 13.257 2.05088C13.285 2.06339 13.3153 2.07681 13.3478 2.09102C13.538 2.17407 13.8051 2.28473 14.1139 2.3956C14.7174 2.61222 15.5347 2.85 16.257 2.85C17.4641 2.85 18.3631 2.50749 19.147 2.11831C19.2847 2.28556 19.4745 2.54173 19.6836 2.89807Z" fill="#F56C6C" stroke="white"/>
<rect x="2.25708" y="16" width="22" height="9" fill="#FFF9BA" stroke="#888B8F"/>
<path d="M8.55305 18.884H7.15305V23.5H5.97705V18.884H4.50505V17.964H8.68105L8.55305 18.884ZM11.1852 17.836C11.6919 17.836 12.1292 17.9507 12.4972 18.18C12.8652 18.404 13.1479 18.732 13.3452 19.164C13.5426 19.596 13.6412 20.1187 13.6412 20.732C13.6412 21.3347 13.5426 21.8547 13.3452 22.292C13.1479 22.724 12.8652 23.0547 12.4972 23.284C12.1292 23.5133 11.6919 23.628 11.1852 23.628C10.6786 23.628 10.2386 23.516 9.86524 23.292C9.49724 23.0627 9.21457 22.732 9.01724 22.3C8.8199 21.8627 8.72124 21.34 8.72124 20.732C8.72124 20.1347 8.8199 19.62 9.01724 19.188C9.2199 18.7507 9.50524 18.4173 9.87324 18.188C10.2466 17.9533 10.6839 17.836 11.1852 17.836ZM11.1852 18.716C10.7799 18.716 10.4732 18.876 10.2652 19.196C10.0626 19.516 9.96124 20.028 9.96124 20.732C9.96124 21.436 10.0652 21.948 10.2732 22.268C10.4812 22.588 10.7852 22.748 11.1852 22.748C11.5906 22.748 11.8946 22.5907 12.0972 22.276C12.2999 21.956 12.4012 21.4413 12.4012 20.732C12.4012 20.0227 12.2999 19.5107 12.0972 19.196C11.8946 18.876 11.5906 18.716 11.1852 18.716ZM15.7085 22.556H17.9005L17.7725 23.5H14.5325V17.964H15.7085V22.556ZM19.7788 22.556H21.9708L21.8428 23.5H18.6028V17.964H19.7788V22.556Z" fill="#888B8F"/>
</svg>
