<svg width="20" height="27" viewBox="0 0 20 27" fill="none" xmlns="http://www.w3.org/2000/svg">
<path d="M3.98796 2.51158C4.02435 2.46204 4.05848 2.41725 4.08997 2.37713C4.88432 2.78504 5.76764 3.09805 6.97559 3.09805C7.70299 3.09805 8.52016 2.86041 9.12298 2.64352C9.43132 2.53259 9.69754 2.42185 9.88701 2.33873C9.91868 2.32484 9.94826 2.31169 9.97558 2.29942C10.0029 2.31169 10.0325 2.32484 10.0642 2.33873C10.2536 2.42185 10.5199 2.53259 10.8282 2.64352C11.431 2.86041 12.2482 3.09805 12.9756 3.09805C14.1835 3.09805 15.0668 2.78504 15.8612 2.37713C15.8927 2.41725 15.9268 2.46204 15.9632 2.51158C16.1785 2.80476 16.4734 3.2653 16.7709 3.9155C17.3652 5.21398 17.9756 7.2803 17.9756 10.298C17.9756 13.267 17.0182 15.4391 15.5467 17.0234C14.0963 18.585 12.1167 19.6067 9.97559 20.228C7.83451 19.6067 5.85487 18.585 4.40444 17.0234C2.93295 15.4391 1.97559 13.267 1.97559 10.298C1.97559 7.2803 2.58596 5.21398 3.18023 3.9155C3.47781 3.2653 3.77266 2.80476 3.98796 2.51158Z" fill="#53C2AE" stroke="white"/>
<path d="M16.4021 3.14612C16.7896 3.80669 17.2458 4.81594 17.5572 6.24805H2.39381C2.70516 4.81593 3.16134 3.80669 3.54887 3.14611C3.75792 2.78978 3.94774 2.53361 4.08548 2.36636C4.86932 2.75554 5.76834 3.09805 6.97546 3.09805C7.69768 3.09805 8.51505 2.86027 9.11852 2.64364C9.42736 2.53278 9.69445 2.42212 9.88463 2.33907C9.91718 2.32486 9.94752 2.31143 9.97549 2.29893C10.0035 2.31143 10.0338 2.32486 10.0663 2.33907C10.2565 2.42212 10.5236 2.53278 10.8324 2.64364C11.4359 2.86027 12.2532 3.09805 12.9755 3.09805C14.1826 3.09805 15.0816 2.75553 15.8655 2.36635C16.0032 2.53361 16.193 2.78977 16.4021 3.14612Z" fill="#53C2AE" stroke="white"/>
<rect x="2.97559" y="16.248" width="14" height="9" fill="#53C2AE" stroke="white"/>
<path d="M8.89549 20.82C9.26883 20.8894 9.57016 21.0254 9.79949 21.228C10.0342 21.4254 10.1515 21.7294 10.1515 22.14C10.1515 22.7214 9.94349 23.1347 9.52749 23.38C9.11149 23.6254 8.53283 23.748 7.79149 23.748H6.06349V18.212H7.57549C8.33283 18.212 8.91149 18.324 9.31149 18.548C9.71149 18.772 9.91149 19.132 9.91149 19.628C9.91149 19.9534 9.81283 20.2174 9.61549 20.42C9.42349 20.6174 9.18349 20.7507 8.89549 20.82ZM7.23949 19.06V20.46H7.81549C8.10349 20.46 8.32483 20.4014 8.47949 20.284C8.63416 20.1614 8.71149 19.9774 8.71149 19.732C8.71149 19.4867 8.62883 19.3134 8.46349 19.212C8.29816 19.1107 8.03949 19.06 7.68749 19.06H7.23949ZM7.79949 22.876C8.16749 22.876 8.44749 22.8227 8.63949 22.716C8.83149 22.604 8.92749 22.396 8.92749 22.092C8.92749 21.5374 8.58616 21.26 7.90349 21.26H7.23949V22.876H7.79949ZM12.1614 22.804H14.3534L14.2254 23.748H10.9854V18.212H12.1614V22.804Z" fill="white"/>
</svg>
