<svg width="26" height="27" viewBox="0 0 26 27" fill="none" xmlns="http://www.w3.org/2000/svg">
<path d="M7.36662 2.26354C7.40301 2.21399 7.43714 2.16921 7.46864 2.12908C8.26299 2.53699 9.1463 2.85 10.3542 2.85C11.0816 2.85 11.8988 2.61236 12.5016 2.39548C12.81 2.28454 13.0762 2.17381 13.2657 2.09069C13.2973 2.07679 13.3269 2.06364 13.3542 2.05137C13.3816 2.06364 13.4111 2.07679 13.4428 2.09069C13.6323 2.17381 13.8985 2.28454 14.2069 2.39548C14.8097 2.61236 15.6268 2.85 16.3542 2.85C17.5622 2.85 18.4455 2.53699 19.2399 2.12908C19.2714 2.16921 19.3055 2.21399 19.3419 2.26354C19.5572 2.55671 19.852 3.01725 20.1496 3.66745C20.7439 4.96593 21.3542 7.03225 21.3542 10.05C21.3542 13.019 20.3969 15.1911 18.9254 16.7754C17.475 18.337 15.4953 19.3586 13.3542 19.98C11.2132 19.3586 9.23353 18.337 7.7831 16.7754C6.31161 15.1911 5.35425 13.019 5.35425 10.05C5.35425 7.03225 5.96463 4.96593 6.5589 3.66745C6.85647 3.01725 7.15132 2.55671 7.36662 2.26354Z" fill="#5397F0" stroke="white"/>
<path d="M19.7807 2.89807C20.1683 3.55865 20.6245 4.56789 20.9358 6H5.77247C6.08382 4.56789 6.54001 3.55864 6.92754 2.89806C7.13658 2.54173 7.3264 2.28557 7.46414 2.11831C8.24799 2.50749 9.147 2.85 10.3541 2.85C11.0763 2.85 11.8937 2.61222 12.4972 2.3956C12.806 2.28473 13.0731 2.17408 13.2633 2.09103C13.2958 2.07681 13.3262 2.06339 13.3542 2.05088C13.3821 2.06339 13.4125 2.07681 13.445 2.09102C13.6352 2.17407 13.9023 2.28473 14.2111 2.3956C14.8146 2.61222 15.6319 2.85 16.3541 2.85C17.5613 2.85 18.4603 2.50749 19.2441 2.11831C19.3819 2.28556 19.5717 2.54173 19.7807 2.89807Z" fill="#F56C6C" stroke="white"/>
<rect x="2.35425" y="16" width="22" height="9" fill="#5397F0" stroke="white"/>
<path d="M6.74315 22.556H8.93515L8.80715 23.5H5.56715V17.964H6.74315V22.556ZM10.8135 23.5H9.63747V17.964H10.8135V23.5ZM16.165 23.5H14.653L12.893 19.108C12.941 19.4867 12.9784 19.844 13.005 20.18C13.037 20.5107 13.053 20.9 13.053 21.348V23.5H11.989V17.964H13.469L15.261 22.364C15.1544 21.6493 15.101 20.9933 15.101 20.396V17.964H16.165V23.5ZM18.5088 23.5H17.3328V17.964H18.5088V23.5ZM19.8048 20.46L21.7968 23.5H20.4208L18.5568 20.548L20.3968 17.964H21.6528L19.8048 20.46Z" fill="white"/>
</svg>
