<svg width="20" height="26" viewBox="0 0 20 26" fill="none" xmlns="http://www.w3.org/2000/svg">
<path d="M6.13616 20.3055L6.13478 20.3041C3.79676 17.9165 2.64973 16.0109 2.07934 14.4183C1.50975 12.8278 1.5 11.5122 1.5 10.2415C1.5 5.40107 5.32485 1.5 9.99133 1.5C14.659 1.5 18.5 5.40234 18.5 10.2415C18.5 11.5122 18.4903 12.8278 17.9207 14.4183C17.3503 16.0109 16.2033 17.9165 13.8652 20.3041L13.8639 20.3055L10 24.2825L6.13616 20.3055Z" fill="#BA6517" stroke="#E3883B"/>
<path d="M14.055 9.9996H6.00005V14.9996L5.75005 15.9996H13.25L13 14.9996V14.4996L14.195 14.3096C14.4252 14.2639 14.632 14.1386 14.7792 13.9558C14.9264 13.773 15.0045 13.5443 15 13.3096V10.9996C15.0004 10.7436 14.9027 10.4973 14.7269 10.3113C14.5511 10.1252 14.3106 10.0137 14.055 9.9996ZM9.00005 14.4996H8.00005V10.9996H9.00005V14.4996ZM11 14.4996H10V10.9996H11V14.4996ZM14 13.0946C14.0001 13.1522 13.9802 13.2081 13.9437 13.2527C13.9073 13.2974 13.8565 13.3281 13.8 13.3396L13 13.4996V10.9996H13.75C13.8164 10.9996 13.8799 11.0259 13.9268 11.0728C13.9737 11.1197 14 11.1833 14 11.2496V13.0946ZM6.54505 8.9996H5.54505C5.53983 8.91635 5.53983 8.83286 5.54505 8.7496C5.5449 8.29317 5.72308 7.85473 6.0416 7.52781C6.36012 7.20088 6.79376 7.01134 7.25005 6.9996H7.75005C7.92651 6.69885 8.17853 6.44946 8.48112 6.27617C8.78371 6.10289 9.12635 6.01172 9.47505 6.01172C9.82374 6.01172 10.1664 6.10289 10.469 6.27617C10.7716 6.44946 11.0236 6.69885 11.2 6.9996H11.75C12.2142 6.9996 12.6593 7.18398 12.9875 7.51217C13.3157 7.84036 13.5 8.28548 13.5 8.7496C13.5053 8.83286 13.5053 8.91635 13.5 8.9996H12.5C12.5152 8.91696 12.5152 8.83225 12.5 8.7496C12.5 8.55069 12.421 8.35993 12.2804 8.21927C12.1397 8.07862 11.949 7.9996 11.75 7.9996H10.5C10.5 7.73439 10.3947 7.48003 10.2072 7.2925C10.0196 7.10496 9.76526 6.9996 9.50005 6.9996C9.23483 6.9996 8.98048 7.10496 8.79294 7.2925C8.6054 7.48003 8.50005 7.73439 8.50005 7.9996H7.25005C7.05114 7.9996 6.86037 8.07862 6.71972 8.21927C6.57907 8.35993 6.50005 8.55069 6.50005 8.7496C6.50197 8.83477 6.51715 8.91911 6.54505 8.9996Z" fill="#D9D9D9"/>
</svg>
