<svg width="26" height="26" viewBox="0 0 26 26" fill="none" xmlns="http://www.w3.org/2000/svg">
<path d="M16.2085 2.35C17.4164 2.35 18.2998 2.03699 19.0941 1.62908C19.1256 1.66921 19.1597 1.71399 19.1961 1.76354C19.4114 2.05671 19.7063 2.51725 20.0038 3.16745C20.5981 4.46593 21.2085 6.53225 21.2085 9.55C21.2085 12.519 20.2511 14.6911 18.7796 16.2754C17.3292 17.837 15.3496 18.8586 13.2085 19.48C11.0674 18.8586 9.08778 17.837 7.63735 16.2754C6.16586 14.6911 5.2085 12.519 5.2085 9.55C5.2085 6.53225 5.81887 4.46593 6.41314 3.16745C6.71072 2.51725 7.00557 2.05671 7.22087 1.76354C7.25726 1.71399 7.29139 1.66921 7.32288 1.62908C8.11723 2.03699 9.00055 2.35 10.2085 2.35C10.9359 2.35 11.7531 2.11236 12.3559 1.89548C12.6642 1.78454 12.9305 1.67381 13.1199 1.59069C13.1516 1.57679 13.1812 1.56364 13.2085 1.55137C13.2358 1.56364 13.2654 1.57679 13.2971 1.59069C13.4865 1.67381 13.7528 1.78454 14.0611 1.89548C14.6639 2.11236 15.4811 2.35 16.2085 2.35Z" fill="#295EA3" stroke="#B0B5BF"/>
<path d="M19.635 2.39807C20.0225 3.05865 20.4787 4.06789 20.7901 5.5H5.62672C5.93807 4.06789 6.39425 3.05864 6.78178 2.39806C6.99083 2.04173 7.18065 1.78557 7.31839 1.61831C8.10224 2.00749 9.00125 2.35 10.2084 2.35C10.9306 2.35 11.748 2.11222 12.3514 1.8956C12.6603 1.78473 12.9274 1.67408 13.1175 1.59103C13.1501 1.57681 13.1804 1.56339 13.2084 1.55088C13.2364 1.56339 13.2667 1.57681 13.2993 1.59102C13.4894 1.67407 13.7565 1.78473 14.0653 1.8956C14.6688 2.11222 15.4862 2.35 16.2084 2.35C17.4155 2.35 18.3145 2.00749 19.0984 1.6183C19.2361 1.78556 19.4259 2.04173 19.635 2.39807Z" fill="#A83939" stroke="#B0B5BF"/>
<rect x="2.2085" y="15.5" width="22" height="9" fill="#295EA3" stroke="#B0B5BF"/>
<path d="M8.20368 18.384H6.80368V23H5.62768V18.384H4.15568V17.464H8.33168L8.20368 18.384ZM10.6451 17.464C11.3651 17.464 11.9225 17.6133 12.3171 17.912C12.7171 18.2107 12.9171 18.656 12.9171 19.248C12.9171 19.8667 12.7198 20.3333 12.3251 20.648C11.9305 20.9573 11.4025 21.112 10.7411 21.112H10.1091V23H8.93312V17.464H10.6451ZM10.6451 20.248C10.9865 20.248 11.2478 20.1707 11.4291 20.016C11.6105 19.8613 11.7011 19.6053 11.7011 19.248C11.7011 18.624 11.3438 18.312 10.6291 18.312H10.1091V20.248H10.6451ZM14.8982 23H13.7222V17.464H14.8982V23ZM16.1942 19.96L18.1862 23H16.8102L14.9462 20.048L16.7862 17.464H18.0422L16.1942 19.96ZM21.8747 18.32H19.8747V19.76H21.6187V20.608H19.8747V22.136H22.0187V23H18.6987V17.464H22.0027L21.8747 18.32Z" fill="#B0B5BF"/>
</svg>
