<svg width="26" height="26" viewBox="0 0 26 26" fill="none" xmlns="http://www.w3.org/2000/svg">
<path d="M16.2571 2.35C17.465 2.35 18.3483 2.03699 19.1427 1.62908C19.1742 1.66921 19.2083 1.71399 19.2447 1.76354C19.46 2.05671 19.7549 2.51725 20.0524 3.16745C20.6467 4.46593 21.2571 6.53225 21.2571 9.55C21.2571 12.519 20.2997 14.6911 18.8282 16.2754C17.3778 17.837 15.3982 18.8586 13.2571 19.48C11.116 18.8586 9.13636 17.837 7.68594 16.2754C6.21445 14.6911 5.25708 12.519 5.25708 9.55C5.25708 6.53225 5.86746 4.46593 6.46173 3.16745C6.7593 2.51725 7.05415 2.05671 7.26945 1.76354C7.30584 1.71399 7.33997 1.66921 7.37147 1.62908C8.16582 2.03699 9.04913 2.35 10.2571 2.35C10.9845 2.35 11.8017 2.11236 12.4045 1.89548C12.7128 1.78454 12.979 1.67381 13.1685 1.59069C13.2002 1.57679 13.2298 1.56364 13.2571 1.55137C13.2844 1.56364 13.314 1.57679 13.3457 1.59069C13.5351 1.67381 13.8014 1.78454 14.1097 1.89548C14.7125 2.11236 15.5297 2.35 16.2571 2.35Z" fill="#295EA3" stroke="#B0B5BF"/>
<path d="M19.6836 2.39807C20.0711 3.05865 20.5273 4.06789 20.8387 5.5H5.6753C5.98665 4.06789 6.44284 3.05864 6.83037 2.39806C7.03941 2.04173 7.22924 1.78557 7.36697 1.61831C8.15082 2.00749 9.04983 2.35 10.257 2.35C10.9792 2.35 11.7965 2.11222 12.4 1.8956C12.7089 1.78473 12.9759 1.67408 13.1661 1.59103C13.1987 1.57681 13.229 1.56339 13.257 1.55088C13.285 1.56339 13.3153 1.57681 13.3478 1.59102C13.538 1.67407 13.8051 1.78473 14.1139 1.8956C14.7174 2.11222 15.5347 2.35 16.257 2.35C17.4641 2.35 18.3631 2.00749 19.147 1.6183C19.2847 1.78556 19.4745 2.04173 19.6836 2.39807Z" fill="#A83939" stroke="#B0B5BF"/>
<rect x="2.25708" y="15.5" width="22" height="9" fill="#A6A563" stroke="#4E545C"/>
<path d="M8.55305 18.384H7.15305V23H5.97705V18.384H4.50505V17.464H8.68105L8.55305 18.384ZM11.1852 17.336C11.6919 17.336 12.1292 17.4507 12.4972 17.68C12.8652 17.904 13.1479 18.232 13.3452 18.664C13.5426 19.096 13.6412 19.6187 13.6412 20.232C13.6412 20.8347 13.5426 21.3547 13.3452 21.792C13.1479 22.224 12.8652 22.5547 12.4972 22.784C12.1292 23.0133 11.6919 23.128 11.1852 23.128C10.6786 23.128 10.2386 23.016 9.86524 22.792C9.49724 22.5627 9.21457 22.232 9.01724 21.8C8.8199 21.3627 8.72124 20.84 8.72124 20.232C8.72124 19.6347 8.8199 19.12 9.01724 18.688C9.2199 18.2507 9.50524 17.9173 9.87324 17.688C10.2466 17.4533 10.6839 17.336 11.1852 17.336ZM11.1852 18.216C10.7799 18.216 10.4732 18.376 10.2652 18.696C10.0626 19.016 9.96124 19.528 9.96124 20.232C9.96124 20.936 10.0652 21.448 10.2732 21.768C10.4812 22.088 10.7852 22.248 11.1852 22.248C11.5906 22.248 11.8946 22.0907 12.0972 21.776C12.2999 21.456 12.4012 20.9413 12.4012 20.232C12.4012 19.5227 12.2999 19.0107 12.0972 18.696C11.8946 18.376 11.5906 18.216 11.1852 18.216ZM15.7085 22.056H17.9005L17.7725 23H14.5325V17.464H15.7085V22.056ZM19.7788 22.056H21.9708L21.8428 23H18.6028V17.464H19.7788V22.056Z" fill="#4E545C"/>
</svg>
