<svg width="22" height="26" viewBox="0 0 22 26" fill="none" xmlns="http://www.w3.org/2000/svg">
<path d="M13.9272 2.35C15.1352 2.35 16.0185 2.03699 16.8129 1.62908C16.8444 1.66921 16.8785 1.71399 16.9149 1.76354C17.1302 2.05671 17.425 2.51725 17.7226 3.16745C18.3169 4.46593 18.9272 6.53225 18.9272 9.55C18.9272 12.519 17.9699 14.6911 16.4984 16.2754C15.048 17.837 13.0683 18.8586 10.9272 19.48C8.78617 18.8586 6.80653 17.837 5.3561 16.2754C3.88461 14.6911 2.92725 12.519 2.92725 9.55C2.92725 6.53225 3.53762 4.46593 4.13189 3.16745C4.42947 2.51725 4.72432 2.05671 4.93962 1.76354C4.97601 1.71399 5.01014 1.66921 5.04163 1.62908C5.83598 2.03699 6.7193 2.35 7.92725 2.35C8.65465 2.35 9.47182 2.11236 10.0746 1.89548C10.383 1.78454 10.6492 1.67381 10.8387 1.59069C10.8703 1.57679 10.8999 1.56364 10.9272 1.55137C10.9546 1.56364 10.9841 1.57679 11.0158 1.59069C11.2053 1.67381 11.4715 1.78454 11.7799 1.89548C12.3827 2.11236 13.1998 2.35 13.9272 2.35Z" fill="#295EA3" stroke="#B0B5BF"/>
<path d="M17.3537 2.39807C17.7413 3.05865 18.1975 4.06789 18.5088 5.5H3.34547C3.65682 4.06789 4.113 3.05864 4.50053 2.39806C4.70958 2.04173 4.8994 1.78557 5.03714 1.61831C5.82099 2.00749 6.72 2.35 7.92712 2.35C8.64934 2.35 9.46671 2.11222 10.0702 1.8956C10.379 1.78473 10.6461 1.67408 10.8363 1.59103C10.8688 1.57681 10.8992 1.56339 10.9271 1.55088C10.9551 1.56339 10.9855 1.57681 11.018 1.59102C11.2082 1.67407 11.4753 1.78473 11.7841 1.8956C12.3876 2.11222 13.2049 2.35 13.9271 2.35C15.1343 2.35 16.0333 2.00749 16.8171 1.6183C16.9549 1.78556 17.1447 2.04173 17.3537 2.39807Z" fill="#A83939" stroke="#B0B5BF"/>
<rect x="1.92725" y="15.5" width="18" height="9" fill="#295EA3" stroke="#B0B5BF"/>
<path d="M7.26512 20.072C7.63845 20.1413 7.93979 20.2773 8.16912 20.48C8.40379 20.6773 8.52112 20.9813 8.52112 21.392C8.52112 21.9733 8.31312 22.3867 7.89712 22.632C7.48112 22.8773 6.90245 23 6.16112 23H4.43312V17.464H5.94512C6.70245 17.464 7.28112 17.576 7.68112 17.8C8.08112 18.024 8.28112 18.384 8.28112 18.88C8.28112 19.2053 8.18245 19.4693 7.98512 19.672C7.79312 19.8693 7.55312 20.0027 7.26512 20.072ZM5.60912 18.312V19.712H6.18512C6.47312 19.712 6.69445 19.6533 6.84912 19.536C7.00379 19.4133 7.08112 19.2293 7.08112 18.984C7.08112 18.7387 6.99845 18.5653 6.83312 18.464C6.66779 18.3627 6.40912 18.312 6.05712 18.312H5.60912ZM6.16912 22.128C6.53712 22.128 6.81712 22.0747 7.00912 21.968C7.20112 21.856 7.29712 21.648 7.29712 21.344C7.29712 20.7893 6.95579 20.512 6.27312 20.512H5.60912V22.128H6.16912ZM11.4722 20.912V23H10.2962V20.92L8.52025 17.464H9.80825L10.9122 19.976L12.0082 17.464H13.2482L11.4722 20.912ZM15.5123 17.464C16.2323 17.464 16.7896 17.6133 17.1843 17.912C17.5843 18.2107 17.7843 18.656 17.7843 19.248C17.7843 19.8667 17.587 20.3333 17.1923 20.648C16.7976 20.9573 16.2696 21.112 15.6083 21.112H14.9763V23H13.8003V17.464H15.5123ZM15.5123 20.248C15.8536 20.248 16.115 20.1707 16.2963 20.016C16.4776 19.8613 16.5683 19.6053 16.5683 19.248C16.5683 18.624 16.211 18.312 15.4963 18.312H14.9763V20.248H15.5123Z" fill="#B0B5BF"/>
</svg>
