<svg width="32" height="26" viewBox="0 0 32 26" fill="none" xmlns="http://www.w3.org/2000/svg">
<path d="M18.7329 2.35C19.9409 2.35 20.8242 2.03699 21.6185 1.62908C21.65 1.66921 21.6841 1.71399 21.7205 1.76354C21.9358 2.05671 22.2307 2.51725 22.5283 3.16745C23.1225 4.46593 23.7329 6.53225 23.7329 9.55C23.7329 12.519 22.7755 14.6911 21.3041 16.2754C19.8536 17.837 17.874 18.8586 15.7329 19.48C13.5918 18.8586 11.6122 17.837 10.1618 16.2754C8.69028 14.6911 7.73291 12.519 7.73291 9.55C7.73291 6.53225 8.34329 4.46593 8.93756 3.16745C9.23513 2.51725 9.52998 2.05671 9.74528 1.76354C9.78167 1.71399 9.8158 1.66921 9.8473 1.62908C10.6416 2.03699 11.525 2.35 12.7329 2.35C13.4603 2.35 14.2775 2.11236 14.8803 1.89548C15.1886 1.78454 15.4549 1.67381 15.6443 1.59069C15.676 1.57679 15.7056 1.56364 15.7329 1.55137C15.7602 1.56364 15.7898 1.57679 15.8215 1.59069C16.011 1.67381 16.2772 1.78454 16.5855 1.89548C17.1883 2.11236 18.0055 2.35 18.7329 2.35Z" fill="#295EA3" stroke="#B0B5BF"/>
<path d="M22.1594 2.39807C22.547 3.05865 23.0031 4.06789 23.3145 5.5H8.15113C8.46248 4.06789 8.91867 3.05864 9.3062 2.39806C9.51524 2.04173 9.70507 1.78557 9.8428 1.61831C10.6266 2.00749 11.5257 2.35 12.7328 2.35C13.455 2.35 14.2724 2.11222 14.8758 1.8956C15.1847 1.78473 15.4518 1.67408 15.642 1.59103C15.6745 1.57681 15.7048 1.56339 15.7328 1.55088C15.7608 1.56339 15.7911 1.57681 15.8237 1.59102C16.0138 1.67407 16.2809 1.78473 16.5898 1.8956C17.1932 2.11222 18.0106 2.35 18.7328 2.35C19.9399 2.35 20.8389 2.00749 21.6228 1.6183C21.7605 1.78556 21.9504 2.04173 22.1594 2.39807Z" fill="#A83939" stroke="#B0B5BF"/>
<rect x="1.73291" y="15.5" width="28" height="9" fill="#295EA3" stroke="#B0B5BF"/>
<path d="M7.90779 18.384H6.50779V23H5.33179V18.384H3.85979V17.464H8.03579L7.90779 18.384ZM10.4132 20.832H9.81322V23H8.63722V17.464H10.3652C11.1066 17.464 11.6639 17.6027 12.0372 17.88C12.4106 18.152 12.5972 18.5653 12.5972 19.12C12.5972 19.4827 12.5066 19.7813 12.3252 20.016C12.1492 20.2507 11.8746 20.4507 11.5012 20.616L12.9332 23H11.5972L10.4132 20.832ZM9.81322 20H10.4292C10.7439 20 10.9812 19.9307 11.1412 19.792C11.3012 19.648 11.3812 19.424 11.3812 19.12C11.3812 18.8373 11.2959 18.632 11.1252 18.504C10.9599 18.3707 10.6986 18.304 10.3412 18.304H9.81322V20ZM17.6248 21.176C17.6248 21.5547 17.5448 21.8907 17.3848 22.184C17.2248 22.4773 16.9848 22.7093 16.6648 22.88C16.3501 23.0453 15.9661 23.128 15.5128 23.128C14.8301 23.128 14.3075 22.952 13.9448 22.6C13.5875 22.2427 13.4088 21.768 13.4088 21.176V17.464H14.5848V21.12C14.5848 21.4933 14.6595 21.7733 14.8088 21.96C14.9581 22.1413 15.1928 22.232 15.5128 22.232C15.8328 22.232 16.0675 22.1413 16.2168 21.96C16.3715 21.7733 16.4488 21.4933 16.4488 21.12V17.464H17.6248V21.176ZM20.9072 17.336C21.2538 17.336 21.5552 17.3867 21.8112 17.488C22.0672 17.584 22.3178 17.7333 22.5632 17.936L21.9792 18.616C21.6592 18.3547 21.3232 18.224 20.9712 18.224C20.5765 18.224 20.2618 18.3867 20.0272 18.712C19.7978 19.032 19.6832 19.536 19.6832 20.224C19.6832 20.896 19.7978 21.3947 20.0272 21.72C20.2618 22.04 20.5792 22.2 20.9792 22.2C21.1872 22.2 21.3765 22.1627 21.5472 22.088C21.7178 22.008 21.8965 21.896 22.0832 21.752L22.6272 22.432C22.4298 22.6347 22.1845 22.8027 21.8912 22.936C21.6032 23.064 21.2832 23.128 20.9312 23.128C20.4352 23.128 20.0005 23.016 19.6272 22.792C19.2538 22.568 18.9632 22.24 18.7552 21.808C18.5472 21.3707 18.4432 20.8427 18.4432 20.224C18.4432 19.6213 18.5498 19.104 18.7632 18.672C18.9765 18.2347 19.2698 17.904 19.6432 17.68C20.0165 17.4507 20.4378 17.336 20.9072 17.336ZM24.4695 23H23.2935V17.464H24.4695V23ZM25.7655 19.96L27.7575 23H26.3815L24.5175 20.048L26.3575 17.464H27.6135L25.7655 19.96Z" fill="#B0B5BF"/>
</svg>
