<svg width="28" height="26" viewBox="0 0 28 26" fill="none" xmlns="http://www.w3.org/2000/svg">
<path d="M17.4028 2.35C18.6108 2.35 19.4941 2.03699 20.2884 1.62908C20.3199 1.66921 20.3541 1.71399 20.3905 1.76354C20.6058 2.05671 20.9006 2.51725 21.1982 3.16745C21.7925 4.46593 22.4028 6.53225 22.4028 9.55C22.4028 12.519 21.4455 14.6911 19.974 16.2754C18.5236 17.837 16.5439 18.8586 14.4028 19.48C12.2618 18.8586 10.2821 17.837 8.83169 16.2754C7.3602 14.6911 6.40283 12.519 6.40283 9.55C6.40283 6.53225 7.01321 4.46593 7.60748 3.16745C7.90505 2.51725 8.1999 2.05671 8.41521 1.76354C8.45159 1.71399 8.48572 1.66921 8.51722 1.62908C9.31157 2.03699 10.1949 2.35 11.4028 2.35C12.1302 2.35 12.9474 2.11236 13.5502 1.89548C13.8586 1.78454 14.1248 1.67381 14.3143 1.59069C14.3459 1.57679 14.3755 1.56364 14.4028 1.55137C14.4302 1.56364 14.4597 1.57679 14.4914 1.59069C14.6809 1.67381 14.9471 1.78454 15.2554 1.89548C15.8583 2.11236 16.6754 2.35 17.4028 2.35Z" fill="#295EA3" stroke="#B0B5BF"/>
<path d="M20.8293 2.39807C21.2169 3.05865 21.6731 4.06789 21.9844 5.5H6.82106C7.13241 4.06789 7.58859 3.05864 7.97612 2.39806C8.18516 2.04173 8.37499 1.78557 8.51272 1.61831C9.29657 2.00749 10.1956 2.35 11.4027 2.35C12.1249 2.35 12.9423 2.11222 13.5458 1.8956C13.8546 1.78473 14.1217 1.67408 14.3119 1.59103C14.3444 1.57681 14.3748 1.56339 14.4027 1.55088C14.4307 1.56339 14.461 1.57681 14.4936 1.59102C14.6838 1.67407 14.9508 1.78473 15.2597 1.8956C15.8631 2.11222 16.6805 2.35 17.4027 2.35C18.6098 2.35 19.5089 2.00749 20.2927 1.6183C20.4304 1.78556 20.6203 2.04173 20.8293 2.39807Z" fill="#A83939" stroke="#B0B5BF"/>
<rect x="2.40283" y="15.5" width="24" height="9" fill="#295EA3" stroke="#B0B5BF"/>
<path d="M6.85443 17.336C7.20109 17.336 7.50243 17.3867 7.75843 17.488C8.01443 17.584 8.26509 17.7333 8.51043 17.936L7.92643 18.616C7.60643 18.3547 7.27043 18.224 6.91843 18.224C6.52376 18.224 6.20909 18.3867 5.97443 18.712C5.74509 19.032 5.63043 19.536 5.63043 20.224C5.63043 20.896 5.74509 21.3947 5.97443 21.72C6.20909 22.04 6.52643 22.2 6.92643 22.2C7.13443 22.2 7.32376 22.1627 7.49443 22.088C7.66509 22.008 7.84376 21.896 8.03043 21.752L8.57443 22.432C8.37709 22.6347 8.13176 22.8027 7.83843 22.936C7.55043 23.064 7.23043 23.128 6.87843 23.128C6.38243 23.128 5.94776 23.016 5.57443 22.792C5.20109 22.568 4.91043 22.24 4.70243 21.808C4.49443 21.3707 4.39043 20.8427 4.39043 20.224C4.39043 19.6213 4.49709 19.104 4.71043 18.672C4.92376 18.2347 5.21709 17.904 5.59043 17.68C5.96376 17.4507 6.38509 17.336 6.85443 17.336ZM11.2685 17.336C11.7752 17.336 12.2125 17.4507 12.5805 17.68C12.9485 17.904 13.2312 18.232 13.4285 18.664C13.6258 19.096 13.7245 19.6187 13.7245 20.232C13.7245 20.8347 13.6258 21.3547 13.4285 21.792C13.2312 22.224 12.9485 22.5547 12.5805 22.784C12.2125 23.0133 11.7752 23.128 11.2685 23.128C10.7618 23.128 10.3218 23.016 9.94849 22.792C9.58049 22.5627 9.29782 22.232 9.10049 21.8C8.90315 21.3627 8.80449 20.84 8.80449 20.232C8.80449 19.6347 8.90315 19.12 9.10049 18.688C9.30315 18.2507 9.58849 17.9173 9.95649 17.688C10.3298 17.4533 10.7672 17.336 11.2685 17.336ZM11.2685 18.216C10.8632 18.216 10.5565 18.376 10.3485 18.696C10.1458 19.016 10.0445 19.528 10.0445 20.232C10.0445 20.936 10.1485 21.448 10.3565 21.768C10.5645 22.088 10.8685 22.248 11.2685 22.248C11.6738 22.248 11.9778 22.0907 12.1805 21.776C12.3832 21.456 12.4845 20.9413 12.4845 20.232C12.4845 19.5227 12.3832 19.0107 12.1805 18.696C11.9778 18.376 11.6738 18.216 11.2685 18.216ZM18.7917 23H17.2797L15.5197 18.608C15.5677 18.9867 15.6051 19.344 15.6317 19.68C15.6637 20.0107 15.6797 20.4 15.6797 20.848V23H14.6157V17.464H16.0957L17.8877 21.864C17.7811 21.1493 17.7277 20.4933 17.7277 19.896V17.464H18.7917V23ZM24.1355 23H22.6235L20.8635 18.608C20.9115 18.9867 20.9488 19.344 20.9755 19.68C21.0075 20.0107 21.0235 20.4 21.0235 20.848V23H19.9595V17.464H21.4395L23.2315 21.864C23.1248 21.1493 23.0715 20.4933 23.0715 19.896V17.464H24.1355V23Z" fill="#B0B5BF"/>
</svg>
