<svg width="26" height="26" viewBox="0 0 26 26" fill="none" xmlns="http://www.w3.org/2000/svg">
<path d="M16.3542 2.35C17.5622 2.35 18.4455 2.03699 19.2399 1.62908C19.2714 1.66921 19.3055 1.71399 19.3419 1.76354C19.5572 2.05671 19.852 2.51725 20.1496 3.16745C20.7439 4.46593 21.3542 6.53225 21.3542 9.55C21.3542 12.519 20.3969 14.6911 18.9254 16.2754C17.475 17.837 15.4953 18.8586 13.3542 19.48C11.2132 18.8586 9.23353 17.837 7.7831 16.2754C6.31161 14.6911 5.35425 12.519 5.35425 9.55C5.35425 6.53225 5.96463 4.46593 6.5589 3.16745C6.85647 2.51725 7.15132 2.05671 7.36662 1.76354C7.40301 1.71399 7.43714 1.66921 7.46864 1.62908C8.26299 2.03699 9.1463 2.35 10.3542 2.35C11.0816 2.35 11.8988 2.11236 12.5016 1.89548C12.81 1.78454 13.0762 1.67381 13.2657 1.59069C13.2973 1.57679 13.3269 1.56364 13.3542 1.55137C13.3816 1.56364 13.4111 1.57679 13.4428 1.59069C13.6323 1.67381 13.8985 1.78454 14.2069 1.89548C14.8097 2.11236 15.6268 2.35 16.3542 2.35Z" fill="#295EA3" stroke="#B0B5BF"/>
<path d="M19.7807 2.39807C20.1683 3.05865 20.6245 4.06789 20.9358 5.5H5.77247C6.08382 4.06789 6.54001 3.05864 6.92754 2.39806C7.13658 2.04173 7.3264 1.78557 7.46414 1.61831C8.24799 2.00749 9.147 2.35 10.3541 2.35C11.0763 2.35 11.8937 2.11222 12.4972 1.8956C12.806 1.78473 13.0731 1.67408 13.2633 1.59103C13.2958 1.57681 13.3262 1.56339 13.3542 1.55088C13.3821 1.56339 13.4125 1.57681 13.445 1.59102C13.6352 1.67407 13.9023 1.78473 14.2111 1.8956C14.8146 2.11222 15.6319 2.35 16.3541 2.35C17.5613 2.35 18.4603 2.00749 19.2441 1.6183C19.3819 1.78556 19.5717 2.04173 19.7807 2.39807Z" fill="#A83939" stroke="#B0B5BF"/>
<rect x="2.35425" y="15.5" width="22" height="9" fill="#295EA3" stroke="#B0B5BF"/>
<path d="M6.74315 22.056H8.93515L8.80715 23H5.56715V17.464H6.74315V22.056ZM10.8135 23H9.63747V17.464H10.8135V23ZM16.165 23H14.653L12.893 18.608C12.941 18.9867 12.9784 19.344 13.005 19.68C13.037 20.0107 13.053 20.4 13.053 20.848V23H11.989V17.464H13.469L15.261 21.864C15.1544 21.1493 15.101 20.4933 15.101 19.896V17.464H16.165V23ZM18.5088 23H17.3328V17.464H18.5088V23ZM19.8048 19.96L21.7968 23H20.4208L18.5568 20.048L20.3968 17.464H21.6528L19.8048 19.96Z" fill="#B0B5BF"/>
</svg>
