<svg width="20" height="27" viewBox="0 0 20 27" fill="none" xmlns="http://www.w3.org/2000/svg">
<path d="M12.9756 2.59805C14.1835 2.59805 15.0668 2.28503 15.8612 1.87713C15.8927 1.91725 15.9268 1.96204 15.9632 2.01158C16.1785 2.30476 16.4734 2.7653 16.7709 3.4155C17.3652 4.71398 17.9756 6.7803 17.9756 9.79805C17.9756 12.767 17.0182 14.9391 15.5467 16.5234C14.0963 18.085 12.1167 19.1067 9.97558 19.728C7.83451 19.1067 5.85487 18.085 4.40444 16.5234C2.93295 14.9391 1.97559 12.767 1.97559 9.79805C1.97559 6.7803 2.58596 4.71398 3.18023 3.4155C3.47781 2.7653 3.77266 2.30476 3.98796 2.01158C4.02435 1.96204 4.05848 1.91725 4.08997 1.87713C4.88432 2.28504 5.76764 2.59805 6.97559 2.59805C7.70299 2.59805 8.52016 2.36041 9.12298 2.14352C9.43132 2.03259 9.69754 1.92185 9.88701 1.83873C9.91868 1.82484 9.94826 1.81169 9.97558 1.79942C10.0029 1.81169 10.0325 1.82484 10.0642 1.83873C10.2536 1.92185 10.5199 2.03259 10.8282 2.14352C11.431 2.36041 12.2482 2.59805 12.9756 2.59805Z" fill="#277567" stroke="#B0B5BF"/>
<path d="M16.4021 2.64612C16.7896 3.30669 17.2458 4.31594 17.5572 5.74805H2.39381C2.70516 4.31593 3.16134 3.30669 3.54887 2.64611C3.75792 2.28978 3.94774 2.03361 4.08548 1.86636C4.86932 2.25554 5.76834 2.59805 6.97546 2.59805C7.69768 2.59805 8.51505 2.36027 9.11852 2.14364C9.42736 2.03278 9.69445 1.92212 9.88463 1.83907C9.91718 1.82486 9.94752 1.81143 9.97549 1.79893C10.0035 1.81143 10.0338 1.82486 10.0663 1.83907C10.2565 1.92212 10.5236 2.03278 10.8324 2.14364C11.4359 2.36027 12.2532 2.59805 12.9755 2.59805C14.1826 2.59805 15.0816 2.25553 15.8655 1.86635C16.0032 2.03361 16.193 2.28977 16.4021 2.64612Z" fill="#277567" stroke="#B0B5BF"/>
<rect x="2.97559" y="15.748" width="14" height="9" fill="#277567" stroke="#B0B5BF"/>
<path d="M8.89549 20.32C9.26883 20.3894 9.57016 20.5254 9.79949 20.728C10.0342 20.9254 10.1515 21.2294 10.1515 21.64C10.1515 22.2214 9.94349 22.6347 9.52749 22.88C9.11149 23.1254 8.53283 23.248 7.79149 23.248H6.06349V17.712H7.57549C8.33283 17.712 8.91149 17.824 9.31149 18.048C9.71149 18.272 9.91149 18.632 9.91149 19.128C9.91149 19.4534 9.81283 19.7174 9.61549 19.92C9.42349 20.1174 9.18349 20.2507 8.89549 20.32ZM7.23949 18.56V19.96H7.81549C8.10349 19.96 8.32483 19.9014 8.47949 19.784C8.63416 19.6614 8.71149 19.4774 8.71149 19.232C8.71149 18.9867 8.62883 18.8134 8.46349 18.712C8.29816 18.6107 8.03949 18.56 7.68749 18.56H7.23949ZM7.79949 22.376C8.16749 22.376 8.44749 22.3227 8.63949 22.216C8.83149 22.104 8.92749 21.896 8.92749 21.592C8.92749 21.0374 8.58616 20.76 7.90349 20.76H7.23949V22.376H7.79949ZM12.1614 22.304H14.3534L14.2254 23.248H10.9854V17.712H12.1614V22.304Z" fill="#B0B5BF"/>
</svg>
