<svg width="28" height="27" viewBox="0 0 28 27" fill="none" xmlns="http://www.w3.org/2000/svg">
<path d="M16.8301 2.59805C18.038 2.59805 18.9213 2.28503 19.7157 1.87713C19.7472 1.91725 19.7813 1.96204 19.8177 2.01158C20.033 2.30476 20.3279 2.7653 20.6254 3.4155C21.2197 4.71398 21.8301 6.7803 21.8301 9.79805C21.8301 12.767 20.8727 14.9391 19.4012 16.5234C17.9508 18.085 15.9711 19.1067 13.8301 19.728C11.689 19.1067 9.70936 18.085 8.25893 16.5234C6.78744 14.9391 5.83008 12.767 5.83008 9.79805C5.83008 6.7803 6.44046 4.71398 7.03473 3.4155C7.3323 2.7653 7.62715 2.30476 7.84245 2.01158C7.87884 1.96204 7.91297 1.91725 7.94447 1.87713C8.73882 2.28504 9.62213 2.59805 10.8301 2.59805C11.5575 2.59805 12.3747 2.36041 12.9775 2.14352C13.2858 2.03259 13.552 1.92185 13.7415 1.83873C13.7732 1.82484 13.8028 1.81169 13.8301 1.79942C13.8574 1.81169 13.887 1.82484 13.9187 1.83873C14.1081 1.92185 14.3743 2.03259 14.6827 2.14352C15.2855 2.36041 16.1027 2.59805 16.8301 2.59805Z" fill="#277567" stroke="#B0B5BF"/>
<path d="M20.2566 2.64612C20.6441 3.30669 21.1003 4.31594 21.4117 5.74805H6.2483C6.55965 4.31593 7.01584 3.30669 7.40337 2.64611C7.61241 2.28978 7.80223 2.03361 7.93997 1.86636C8.72382 2.25554 9.62283 2.59805 10.83 2.59805C11.5522 2.59805 12.3695 2.36027 12.973 2.14364C13.2819 2.03278 13.5489 1.92212 13.7391 1.83907C13.7717 1.82486 13.802 1.81143 13.83 1.79893C13.8579 1.81143 13.8883 1.82486 13.9208 1.83907C14.111 1.92212 14.3781 2.03278 14.6869 2.14364C15.2904 2.36027 16.1077 2.59805 16.83 2.59805C18.0371 2.59805 18.9361 2.25553 19.72 1.86635C19.8577 2.03361 20.0475 2.28977 20.2566 2.64612Z" fill="#277567" stroke="#B0B5BF"/>
<rect x="1.83008" y="15.748" width="24" height="9" fill="#277567" stroke="#B0B5BF"/>
<path d="M5.80102 22.304H7.99302L7.86502 23.248H4.62502V17.712H5.80102V22.304ZM10.5356 17.584C11.0422 17.584 11.4796 17.6987 11.8476 17.928C12.2156 18.152 12.4982 18.48 12.6956 18.912C12.8929 19.344 12.9916 19.8667 12.9916 20.48C12.9916 21.0827 12.8929 21.6027 12.6956 22.04C12.4982 22.472 12.2156 22.8027 11.8476 23.032C11.4796 23.2614 11.0422 23.376 10.5356 23.376C10.0289 23.376 9.58891 23.264 9.21558 23.04C8.84758 22.8107 8.56491 22.48 8.36758 22.048C8.17024 21.6107 8.07158 21.088 8.07158 20.48C8.07158 19.8827 8.17024 19.368 8.36758 18.936C8.57024 18.4987 8.85558 18.1654 9.22358 17.936C9.59691 17.7014 10.0342 17.584 10.5356 17.584ZM10.5356 18.464C10.1302 18.464 9.82358 18.624 9.61558 18.944C9.41291 19.264 9.31158 19.776 9.31158 20.48C9.31158 21.184 9.41558 21.696 9.62358 22.016C9.83158 22.336 10.1356 22.496 10.5356 22.496C10.9409 22.496 11.2449 22.3387 11.4476 22.024C11.6502 21.704 11.7516 21.1894 11.7516 20.48C11.7516 19.7707 11.6502 19.2587 11.4476 18.944C11.2449 18.624 10.9409 18.464 10.5356 18.464ZM16.0668 17.584C16.5735 17.584 17.0108 17.6987 17.3788 17.928C17.7468 18.152 18.0295 18.48 18.2268 18.912C18.4242 19.344 18.5228 19.8667 18.5228 20.48C18.5228 21.0827 18.4242 21.6027 18.2268 22.04C18.0295 22.472 17.7468 22.8027 17.3788 23.032C17.0108 23.2614 16.5735 23.376 16.0668 23.376C15.5602 23.376 15.1202 23.264 14.7468 23.04C14.3788 22.8107 14.0962 22.48 13.8988 22.048C13.7015 21.6107 13.6028 21.088 13.6028 20.48C13.6028 19.8827 13.7015 19.368 13.8988 18.936C14.1015 18.4987 14.3868 18.1654 14.7548 17.936C15.1282 17.7014 15.5655 17.584 16.0668 17.584ZM16.0668 18.464C15.6615 18.464 15.3548 18.624 15.1468 18.944C14.9442 19.264 14.8428 19.776 14.8428 20.48C14.8428 21.184 14.9468 21.696 15.1548 22.016C15.3628 22.336 15.6668 22.496 16.0668 22.496C16.4722 22.496 16.7762 22.3387 16.9788 22.024C17.1815 21.704 17.2828 21.1894 17.2828 20.48C17.2828 19.7707 17.1815 19.2587 16.9788 18.944C16.7762 18.624 16.4722 18.464 16.0668 18.464ZM21.1261 17.712C21.8461 17.712 22.4034 17.8614 22.7981 18.16C23.1981 18.4587 23.3981 18.904 23.3981 19.496C23.3981 20.1147 23.2007 20.5814 22.8061 20.896C22.4114 21.2054 21.8834 21.36 21.2221 21.36H20.5901V23.248H19.4141V17.712H21.1261ZM21.1261 20.496C21.4674 20.496 21.7287 20.4187 21.9101 20.264C22.0914 20.1094 22.1821 19.8534 22.1821 19.496C22.1821 18.872 21.8247 18.56 21.1101 18.56H20.5901V20.496H21.1261Z" fill="#B0B5BF"/>
</svg>
