<svg width="22" height="20" viewBox="0 0 22 20" fill="none" xmlns="http://www.w3.org/2000/svg">
<g id="usa_NE_01">
<g id="USA / usa_NE_01">
<g id="usa_NE_base">
<g id="stretchable-items">
<path id="NE-stretchable" d="M20.4304 1.5L18.2244 18.3758C18.1993 18.3698 18.1733 18.3636 18.1467 18.3573C17.7436 18.2617 17.1646 18.1347 16.4557 18.0078C15.0396 17.7544 13.0971 17.5 11 17.5C8.90294 17.5 6.96036 17.7544 5.54428 18.0078C4.83539 18.1347 4.25636 18.2617 3.85335 18.3573C3.82666 18.3636 3.80074 18.3698 3.7756 18.3758L1.56961 1.5H20.4304Z" fill="#B0B5BF" stroke="#4E545C"/>
</g>
<g id="non-stretchable-items">
<path id="NE-non-stretchable" fill-rule="evenodd" clip-rule="evenodd" d="M7.2943 17.4189L7.54888 16.6528L7.49536 16.3609L6.56646 15.6635L6.69961 15.2608L6.53078 15.0474L6.51294 14.6419L6.83447 14.9986L7.85257 14.7067L8.01333 14.1229L8.24545 14.431H8.90635L9.03144 13.9446L9.42495 14.7389L9.70974 14.7835C9.48084 14.2268 9.27901 13.724 9.33857 13.0715C9.39814 12.4189 10.0029 11.7346 10.9942 11.6408C11.9854 11.5469 12.8391 12.2057 12.9226 13.0715C12.9791 13.6577 12.678 14.431 12.3898 14.8039C12.363 14.9688 12.3898 15.2148 12.6075 15.3111C12.8986 15.1167 13.1889 14.8075 13.3826 14.4766C13.6103 14.0875 13.6355 13.4054 13.5819 13.144C14.1365 14.0977 13.6052 14.9688 13.0356 15.441C13.1689 15.481 13.3639 15.5429 13.5817 15.6146C13.9546 15.4785 14.1943 15.2469 14.3855 14.877C14.5933 14.4756 14.5089 14.0479 14.4451 13.7383C14.5483 13.8665 14.7201 14.4061 14.6794 14.8039C14.6469 15.1226 14.4802 15.4805 14.1261 15.7994C14.2176 15.8316 14.3056 15.863 14.3893 15.8939C14.6422 15.8097 14.9879 15.4953 15.0821 15.2844C15.1824 15.0594 15.1356 14.427 15.1356 14.427L15.4869 14.7673C15.4869 14.7673 15.5061 15.271 15.4229 15.5772C15.3247 15.9388 14.9751 16.4258 14.9751 16.4258L14.8469 17.6688L7.2943 17.4189ZM8.0813 15.4696L8.40388 16.2545L8.70829 17.1176L9.70136 16.9851L9.40518 16.3927L8.70829 16.1662L8.0813 15.4696ZM10.3808 15.6335L9.61425 15.4698L9.17869 15.8348H9.61425L10.3808 16.9851L10.7507 16.7691L10.675 16.0423L10.3808 15.6335ZM11.0885 14.5845C11.5987 14.5845 12.0123 14.1366 12.0123 13.5842C12.0123 13.0317 11.5987 12.5839 11.0885 12.5839C10.5784 12.5839 10.1648 13.0317 10.1648 13.5842C10.1648 14.1366 10.5784 14.5845 11.0885 14.5845ZM13.0949 16.5187C13.095 16.2316 12.8539 15.999 12.6311 15.9567C12.3204 15.8978 12.1446 16.0202 12.0755 16.3003C12.0011 16.6019 12.2748 16.9024 12.6308 16.9794C12.9395 17.0462 13.0948 16.8057 13.0949 16.5187ZM14.0652 16.3309C14.2444 16.3649 14.4382 16.5519 14.4382 16.7827C14.4381 17.0135 14.3133 17.2069 14.065 17.1532C13.7788 17.0912 13.5587 16.8496 13.6185 16.6071C13.6741 16.3819 13.8155 16.2834 14.0652 16.3309Z" fill="#4E545C"/>
</g>
</g>
</g>
</g>
</svg>
