<svg width="19" height="18" viewBox="0 0 19 18" fill="none" xmlns="http://www.w3.org/2000/svg">
<g id="usa_a_AK_01">
<g id="USA / usa_a_AK_01">
<g id="usa_a_base">
<g id="stretchable-items">
<rect id="shape01" x="1.5" y="1.5" width="16" height="15" fill="#B0B5BF" stroke="#4E545C"/>
</g>
<g id="non-stretchable-items">
<g id="AK">
<path id="symbol" d="M13.4375 4.03631L12.8968 2.42676L12.3561 4.03631H10.6064L12.022 5.03107L11.4813 6.64063L12.8968 5.64587L14.3124 6.64063L13.7717 5.03107L15.1872 4.03631H13.4375Z" fill="#4E545C"/>
<path id="AK_2" d="M5.99268 5.68105H4.90768L4.71268 6.45605H3.94768L5.01268 2.99605H5.90768L6.96768 6.45605H6.18768L5.99268 5.68105ZM5.85268 5.13605L5.44768 3.54105L5.04768 5.13605H5.85268ZM8.02236 6.45605H7.28736V2.99605H8.02236V6.45605ZM8.83236 4.55605L10.0774 6.45605H9.21736L8.05236 4.61105L9.20236 2.99605H9.98736L8.83236 4.55605Z" fill="#4E545C"/>
</g>
</g>
</g>
</g>
</g>
</svg>
