<svg width="21" height="20" viewBox="0 0 21 20" fill="none" xmlns="http://www.w3.org/2000/svg">
<g id="usa_e_CA_01">
<g id="USA / usa_e_CA_01">
<g id="usa_e_base">
<g id="stretchable-items">
<path id="CA-stretchable" d="M1.529 12.0091L1.52909 12.0091L1.52909 12C1.52909 9.38165 2.711 6.74476 4.45468 4.75767C6.20507 2.76294 8.45052 1.5 10.5145 1.5C12.5785 1.5 14.824 2.76294 16.5744 4.75768C18.3181 6.74477 19.5 9.38165 19.5 12L19.5 14.8601C19.5 16.0072 18.8579 17.0478 17.6853 17.4344C16.1282 17.9478 13.7108 18.5 10.5145 18.5C7.25956 18.5 4.81241 17.9273 3.25883 17.4062C2.1286 17.027 1.50352 16.0369 1.50048 14.9413C1.49813 14.0932 1.5039 13.3814 1.529 12.0091Z" fill="#277567" stroke="#B0B5BF"/>
</g>
<g id="non-stretchable-items">
<path id="CA-non-stretchable" d="M9.33693 4.21293C9.5536 4.21293 9.74193 4.2446 9.90193 4.30793C10.0619 4.36793 10.2186 4.46126 10.3719 4.58793L10.0069 5.01293C9.80693 4.8496 9.59693 4.76793 9.37693 4.76793C9.13027 4.76793 8.9336 4.8696 8.78693 5.07293C8.6436 5.27293 8.57193 5.58793 8.57193 6.01793C8.57193 6.43793 8.6436 6.7496 8.78693 6.95293C8.9336 7.15293 9.13193 7.25293 9.38193 7.25293C9.51193 7.25293 9.63027 7.2296 9.73693 7.18293C9.8436 7.13293 9.95527 7.06293 10.0719 6.97293L10.4119 7.39793C10.2886 7.5246 10.1353 7.6296 9.95193 7.71293C9.77193 7.79293 9.57193 7.83293 9.35193 7.83293C9.04193 7.83293 8.77027 7.76293 8.53693 7.62293C8.3036 7.48293 8.12193 7.27793 7.99193 7.00793C7.86193 6.7346 7.79693 6.4046 7.79693 6.01793C7.79693 5.64126 7.8636 5.31793 7.99693 5.04793C8.13027 4.7746 8.3136 4.56793 8.54693 4.42793C8.78027 4.2846 9.0436 4.21293 9.33693 4.21293ZM12.4634 6.97793H11.3784L11.1834 7.75293H10.4184L11.4834 4.29293H12.3784L13.4384 7.75293H12.6584L12.4634 6.97793ZM12.3234 6.43293L11.9184 4.83793L11.5184 6.43293H12.3234Z" fill="#B0B5BF"/>
</g>
</g>
</g>
</g>
</svg>
