<svg width="28" height="27" viewBox="0 0 28 27" fill="none" xmlns="http://www.w3.org/2000/svg">
<path d="M8.41521 2.26354C8.45159 2.21399 8.48572 2.16921 8.51722 2.12908C9.31157 2.53699 10.1949 2.85 11.4028 2.85C12.1302 2.85 12.9474 2.61236 13.5502 2.39548C13.8586 2.28454 14.1248 2.17381 14.3143 2.09069C14.3459 2.07679 14.3755 2.06364 14.4028 2.05137C14.4302 2.06364 14.4597 2.07679 14.4914 2.09069C14.6809 2.17381 14.9471 2.28454 15.2554 2.39548C15.8583 2.61236 16.6754 2.85 17.4028 2.85C18.6108 2.85 19.4941 2.53699 20.2884 2.12908C20.3199 2.16921 20.3541 2.21399 20.3905 2.26354C20.6058 2.55671 20.9006 3.01725 21.1982 3.66745C21.7925 4.96593 22.4028 7.03225 22.4028 10.05C22.4028 13.019 21.4455 15.1911 19.974 16.7754C18.5236 18.337 16.5439 19.3586 14.4028 19.98C12.2618 19.3586 10.2821 18.337 8.83169 16.7754C7.3602 15.1911 6.40283 13.019 6.40283 10.05C6.40283 7.03225 7.01321 4.96593 7.60748 3.66745C7.90505 3.01725 8.1999 2.55671 8.41521 2.26354Z" fill="#5397F0" stroke="white"/>
<path d="M20.8293 2.89807C21.2169 3.55865 21.6731 4.56789 21.9844 6H6.82106C7.13241 4.56789 7.58859 3.55864 7.97612 2.89806C8.18516 2.54173 8.37499 2.28557 8.51272 2.11831C9.29657 2.50749 10.1956 2.85 11.4027 2.85C12.1249 2.85 12.9423 2.61222 13.5458 2.3956C13.8546 2.28473 14.1217 2.17408 14.3119 2.09103C14.3444 2.07681 14.3748 2.06339 14.4027 2.05088C14.4307 2.06339 14.461 2.07681 14.4936 2.09102C14.6838 2.17407 14.9508 2.28473 15.2597 2.3956C15.8631 2.61222 16.6805 2.85 17.4027 2.85C18.6098 2.85 19.5089 2.50749 20.2927 2.11831C20.4304 2.28556 20.6203 2.54173 20.8293 2.89807Z" fill="#F56C6C" stroke="white"/>
<rect x="2.40283" y="16" width="24" height="9" fill="#5397F0" stroke="white"/>
<path d="M6.85443 17.836C7.20109 17.836 7.50243 17.8867 7.75843 17.988C8.01443 18.084 8.26509 18.2333 8.51043 18.436L7.92643 19.116C7.60643 18.8547 7.27043 18.724 6.91843 18.724C6.52376 18.724 6.20909 18.8867 5.97443 19.212C5.74509 19.532 5.63043 20.036 5.63043 20.724C5.63043 21.396 5.74509 21.8947 5.97443 22.22C6.20909 22.54 6.52643 22.7 6.92643 22.7C7.13443 22.7 7.32376 22.6627 7.49443 22.588C7.66509 22.508 7.84376 22.396 8.03043 22.252L8.57443 22.932C8.37709 23.1347 8.13176 23.3027 7.83843 23.436C7.55043 23.564 7.23043 23.628 6.87843 23.628C6.38243 23.628 5.94776 23.516 5.57443 23.292C5.20109 23.068 4.91043 22.74 4.70243 22.308C4.49443 21.8707 4.39043 21.3427 4.39043 20.724C4.39043 20.1213 4.49709 19.604 4.71043 19.172C4.92376 18.7347 5.21709 18.404 5.59043 18.18C5.96376 17.9507 6.38509 17.836 6.85443 17.836ZM11.2685 17.836C11.7752 17.836 12.2125 17.9507 12.5805 18.18C12.9485 18.404 13.2312 18.732 13.4285 19.164C13.6258 19.596 13.7245 20.1187 13.7245 20.732C13.7245 21.3347 13.6258 21.8547 13.4285 22.292C13.2312 22.724 12.9485 23.0547 12.5805 23.284C12.2125 23.5133 11.7752 23.628 11.2685 23.628C10.7618 23.628 10.3218 23.516 9.94849 23.292C9.58049 23.0627 9.29782 22.732 9.10049 22.3C8.90315 21.8627 8.80449 21.34 8.80449 20.732C8.80449 20.1347 8.90315 19.62 9.10049 19.188C9.30315 18.7507 9.58849 18.4173 9.95649 18.188C10.3298 17.9533 10.7672 17.836 11.2685 17.836ZM11.2685 18.716C10.8632 18.716 10.5565 18.876 10.3485 19.196C10.1458 19.516 10.0445 20.028 10.0445 20.732C10.0445 21.436 10.1485 21.948 10.3565 22.268C10.5645 22.588 10.8685 22.748 11.2685 22.748C11.6738 22.748 11.9778 22.5907 12.1805 22.276C12.3832 21.956 12.4845 21.4413 12.4845 20.732C12.4845 20.0227 12.3832 19.5107 12.1805 19.196C11.9778 18.876 11.6738 18.716 11.2685 18.716ZM18.7917 23.5H17.2797L15.5197 19.108C15.5677 19.4867 15.6051 19.844 15.6317 20.18C15.6637 20.5107 15.6797 20.9 15.6797 21.348V23.5H14.6157V17.964H16.0957L17.8877 22.364C17.7811 21.6493 17.7277 20.9933 17.7277 20.396V17.964H18.7917V23.5ZM24.1355 23.5H22.6235L20.8635 19.108C20.9115 19.4867 20.9488 19.844 20.9755 20.18C21.0075 20.5107 21.0235 20.9 21.0235 21.348V23.5H19.9595V17.964H21.4395L23.2315 22.364C23.1248 21.6493 23.0715 20.9933 23.0715 20.396V17.964H24.1355V23.5Z" fill="white"/>
</svg>
