<svg width="34" height="27" viewBox="0 0 34 27" fill="none" xmlns="http://www.w3.org/2000/svg">
<path d="M11.318 2.26354C11.3544 2.21399 11.3886 2.16921 11.4201 2.12908C12.2144 2.53699 13.0977 2.85 14.3057 2.85C15.0331 2.85 15.8502 2.61236 16.4531 2.39548C16.7614 2.28454 17.0276 2.17381 17.2171 2.09069C17.2488 2.07679 17.2783 2.06364 17.3057 2.05137C17.333 2.06364 17.3626 2.07679 17.3942 2.09069C17.5837 2.17381 17.8499 2.28454 18.1583 2.39548C18.7611 2.61236 19.5783 2.85 20.3057 2.85C21.5136 2.85 22.3969 2.53699 23.1913 2.12908C23.2228 2.16921 23.2569 2.21399 23.2933 2.26354C23.5086 2.55671 23.8034 3.01725 24.101 3.66745C24.6953 4.96593 25.3057 7.03225 25.3057 10.05C25.3057 13.019 24.3483 15.1911 22.8768 16.7754C21.4264 18.337 19.4467 19.3586 17.3057 19.98C15.1646 19.3586 13.1849 18.337 11.7345 16.7754C10.263 15.1911 9.30566 13.019 9.30566 10.05C9.30566 7.03225 9.91604 4.96593 10.5103 3.66745C10.8079 3.01725 11.1027 2.55671 11.318 2.26354Z" fill="#5397F0" stroke="white"/>
<path d="M23.7322 2.89807C24.1197 3.55865 24.5759 4.56789 24.8873 6H9.72389C10.0352 4.56789 10.4914 3.55864 10.879 2.89806C11.088 2.54173 11.2778 2.28557 11.4156 2.11831C12.1994 2.50749 13.0984 2.85 14.3055 2.85C15.0278 2.85 15.8451 2.61222 16.4486 2.3956C16.7574 2.28473 17.0245 2.17408 17.2147 2.09103C17.2473 2.07681 17.2776 2.06339 17.3056 2.05088C17.3335 2.06339 17.3639 2.07681 17.3964 2.09102C17.5866 2.17407 17.8537 2.28473 18.1625 2.3956C18.766 2.61222 19.5833 2.85 20.3055 2.85C21.5127 2.85 22.4117 2.50749 23.1955 2.11831C23.3333 2.28556 23.5231 2.54173 23.7322 2.89807Z" fill="#F56C6C" stroke="white"/>
<rect x="2.30566" y="16" width="30" height="9" fill="#5397F0" stroke="white"/>
<path d="M6.7847 17.836C7.1847 17.836 7.53136 17.8947 7.8247 18.012C8.12336 18.124 8.39803 18.2973 8.6487 18.532L8.0887 19.18C7.89136 19.02 7.69403 18.9027 7.4967 18.828C7.29936 18.7533 7.0887 18.716 6.8647 18.716C6.61936 18.716 6.42203 18.7693 6.2727 18.876C6.1287 18.9773 6.0567 19.124 6.0567 19.316C6.0567 19.4493 6.08603 19.5587 6.1447 19.644C6.2087 19.7293 6.31803 19.8093 6.4727 19.884C6.62736 19.9587 6.85936 20.044 7.1687 20.14C7.71803 20.316 8.1287 20.5347 8.4007 20.796C8.6727 21.052 8.8087 21.42 8.8087 21.9C8.8087 22.2413 8.72336 22.5427 8.5527 22.804C8.38203 23.06 8.13403 23.2627 7.8087 23.412C7.48336 23.556 7.10203 23.628 6.6647 23.628C6.22736 23.628 5.83803 23.5587 5.4967 23.42C5.15536 23.2813 4.86203 23.092 4.6167 22.852L5.2167 22.188C5.43003 22.3693 5.65136 22.508 5.8807 22.604C6.11003 22.6947 6.3607 22.74 6.6327 22.74C6.9207 22.74 7.15003 22.6733 7.3207 22.54C7.4967 22.4067 7.5847 22.22 7.5847 21.98C7.5847 21.8307 7.5527 21.708 7.4887 21.612C7.43003 21.5107 7.32603 21.42 7.1767 21.34C7.02736 21.26 6.81136 21.1773 6.5287 21.092C5.92603 20.9053 5.49403 20.6813 5.2327 20.42C4.9767 20.1587 4.8487 19.8173 4.8487 19.396C4.8487 19.0867 4.93136 18.8147 5.0967 18.58C5.26203 18.34 5.49136 18.156 5.7847 18.028C6.07803 17.9 6.41136 17.836 6.7847 17.836ZM11.8041 17.836C12.1508 17.836 12.4521 17.8867 12.7081 17.988C12.9641 18.084 13.2148 18.2333 13.4601 18.436L12.8761 19.116C12.5561 18.8547 12.2201 18.724 11.8681 18.724C11.4735 18.724 11.1588 18.8867 10.9241 19.212C10.6948 19.532 10.5801 20.036 10.5801 20.724C10.5801 21.396 10.6948 21.8947 10.9241 22.22C11.1588 22.54 11.4761 22.7 11.8761 22.7C12.0841 22.7 12.2735 22.6627 12.4441 22.588C12.6148 22.508 12.7935 22.396 12.9801 22.252L13.5241 22.932C13.3268 23.1347 13.0815 23.3027 12.7881 23.436C12.5001 23.564 12.1801 23.628 11.8281 23.628C11.3321 23.628 10.8975 23.516 10.5241 23.292C10.1508 23.068 9.86013 22.74 9.65213 22.308C9.44413 21.8707 9.34013 21.3427 9.34013 20.724C9.34013 20.1213 9.4468 19.604 9.66013 19.172C9.87347 18.7347 10.1668 18.404 10.5401 18.18C10.9135 17.9507 11.3348 17.836 11.8041 17.836ZM17.3664 18.82H15.3664V20.26H17.1104V21.108H15.3664V22.636H17.5104V23.5H14.1904V17.964H17.4944L17.3664 18.82ZM22.593 23.5H21.081L19.321 19.108C19.369 19.4867 19.4063 19.844 19.433 20.18C19.465 20.5107 19.481 20.9 19.481 21.348V23.5H18.417V17.964H19.897L21.689 22.364C21.5823 21.6493 21.529 20.9933 21.529 20.396V17.964H22.593V23.5ZM24.9368 23.5H23.7608V17.964H24.9368V23.5ZM28.2963 17.836C28.643 17.836 28.9443 17.8867 29.2003 17.988C29.4563 18.084 29.707 18.2333 29.9523 18.436L29.3683 19.116C29.0483 18.8547 28.7123 18.724 28.3603 18.724C27.9657 18.724 27.651 18.8867 27.4163 19.212C27.187 19.532 27.0723 20.036 27.0723 20.724C27.0723 21.396 27.187 21.8947 27.4163 22.22C27.651 22.54 27.9683 22.7 28.3683 22.7C28.5763 22.7 28.7657 22.6627 28.9363 22.588C29.107 22.508 29.2857 22.396 29.4723 22.252L30.0163 22.932C29.819 23.1347 29.5737 23.3027 29.2803 23.436C28.9923 23.564 28.6723 23.628 28.3203 23.628C27.8243 23.628 27.3897 23.516 27.0163 23.292C26.643 23.068 26.3523 22.74 26.1443 22.308C25.9363 21.8707 25.8323 21.3427 25.8323 20.724C25.8323 20.1213 25.939 19.604 26.1523 19.172C26.3657 18.7347 26.659 18.404 27.0323 18.18C27.4057 17.9507 27.827 17.836 28.2963 17.836Z" fill="white"/>
</svg>
