<svg width="28" height="27" viewBox="0 0 28 27" fill="none" xmlns="http://www.w3.org/2000/svg">
<path d="M7.84245 2.51158C7.87884 2.46204 7.91297 2.41725 7.94447 2.37713C8.73882 2.78504 9.62213 3.09805 10.8301 3.09805C11.5575 3.09805 12.3747 2.86041 12.9775 2.64352C13.2858 2.53259 13.552 2.42185 13.7415 2.33873C13.7732 2.32484 13.8028 2.31169 13.8301 2.29942C13.8574 2.31169 13.887 2.32484 13.9187 2.33873C14.1081 2.42185 14.3743 2.53259 14.6827 2.64352C15.2855 2.86041 16.1027 3.09805 16.8301 3.09805C18.038 3.09805 18.9213 2.78504 19.7157 2.37713C19.7472 2.41725 19.7813 2.46204 19.8177 2.51158C20.033 2.80476 20.3279 3.2653 20.6254 3.9155C21.2197 5.21398 21.8301 7.2803 21.8301 10.298C21.8301 13.267 20.8727 15.4391 19.4012 17.0234C17.9508 18.585 15.9712 19.6067 13.8301 20.228C11.689 19.6067 9.70936 18.585 8.25893 17.0234C6.78744 15.4391 5.83008 13.267 5.83008 10.298C5.83008 7.2803 6.44046 5.21398 7.03473 3.9155C7.3323 3.2653 7.62715 2.80476 7.84245 2.51158Z" fill="#53C2AE" stroke="white"/>
<path d="M20.2566 3.14612C20.6441 3.80669 21.1003 4.81594 21.4117 6.24805H6.2483C6.55965 4.81593 7.01584 3.80669 7.40337 3.14611C7.61241 2.78978 7.80223 2.53361 7.93997 2.36636C8.72382 2.75554 9.62283 3.09805 10.83 3.09805C11.5522 3.09805 12.3695 2.86027 12.973 2.64364C13.2819 2.53278 13.5489 2.42212 13.7391 2.33907C13.7717 2.32486 13.802 2.31143 13.83 2.29893C13.8579 2.31143 13.8883 2.32486 13.9208 2.33907C14.111 2.42212 14.3781 2.53278 14.6869 2.64364C15.2904 2.86027 16.1077 3.09805 16.83 3.09805C18.0371 3.09805 18.9361 2.75553 19.72 2.36635C19.8577 2.53361 20.0475 2.78977 20.2566 3.14612Z" fill="#53C2AE" stroke="white"/>
<rect x="1.83008" y="16.248" width="24" height="9" fill="#53C2AE" stroke="white"/>
<path d="M5.80102 22.804H7.99302L7.86502 23.748H4.62502V18.212H5.80102V22.804ZM10.5356 18.084C11.0422 18.084 11.4796 18.1987 11.8476 18.428C12.2156 18.652 12.4982 18.98 12.6956 19.412C12.8929 19.844 12.9916 20.3667 12.9916 20.98C12.9916 21.5827 12.8929 22.1027 12.6956 22.54C12.4982 22.972 12.2156 23.3027 11.8476 23.532C11.4796 23.7614 11.0422 23.876 10.5356 23.876C10.0289 23.876 9.58891 23.764 9.21558 23.54C8.84758 23.3107 8.56491 22.98 8.36758 22.548C8.17024 22.1107 8.07158 21.588 8.07158 20.98C8.07158 20.3827 8.17024 19.868 8.36758 19.436C8.57024 18.9987 8.85558 18.6654 9.22358 18.436C9.59691 18.2014 10.0342 18.084 10.5356 18.084ZM10.5356 18.964C10.1302 18.964 9.82358 19.124 9.61558 19.444C9.41291 19.764 9.31158 20.276 9.31158 20.98C9.31158 21.684 9.41558 22.196 9.62358 22.516C9.83158 22.836 10.1356 22.996 10.5356 22.996C10.9409 22.996 11.2449 22.8387 11.4476 22.524C11.6502 22.204 11.7516 21.6894 11.7516 20.98C11.7516 20.2707 11.6502 19.7587 11.4476 19.444C11.2449 19.124 10.9409 18.964 10.5356 18.964ZM16.0668 18.084C16.5735 18.084 17.0108 18.1987 17.3788 18.428C17.7468 18.652 18.0295 18.98 18.2268 19.412C18.4242 19.844 18.5228 20.3667 18.5228 20.98C18.5228 21.5827 18.4242 22.1027 18.2268 22.54C18.0295 22.972 17.7468 23.3027 17.3788 23.532C17.0108 23.7614 16.5735 23.876 16.0668 23.876C15.5602 23.876 15.1202 23.764 14.7468 23.54C14.3788 23.3107 14.0962 22.98 13.8988 22.548C13.7015 22.1107 13.6028 21.588 13.6028 20.98C13.6028 20.3827 13.7015 19.868 13.8988 19.436C14.1015 18.9987 14.3868 18.6654 14.7548 18.436C15.1282 18.2014 15.5655 18.084 16.0668 18.084ZM16.0668 18.964C15.6615 18.964 15.3548 19.124 15.1468 19.444C14.9442 19.764 14.8428 20.276 14.8428 20.98C14.8428 21.684 14.9468 22.196 15.1548 22.516C15.3628 22.836 15.6668 22.996 16.0668 22.996C16.4722 22.996 16.7762 22.8387 16.9788 22.524C17.1815 22.204 17.2828 21.6894 17.2828 20.98C17.2828 20.2707 17.1815 19.7587 16.9788 19.444C16.7762 19.124 16.4722 18.964 16.0668 18.964ZM21.1261 18.212C21.8461 18.212 22.4034 18.3614 22.7981 18.66C23.1981 18.9587 23.3981 19.404 23.3981 19.996C23.3981 20.6147 23.2007 21.0814 22.8061 21.396C22.4114 21.7054 21.8834 21.86 21.2221 21.86H20.5901V23.748H19.4141V18.212H21.1261ZM21.1261 20.996C21.4674 20.996 21.7287 20.9187 21.9101 20.764C22.0914 20.6094 22.1821 20.3534 22.1821 19.996C22.1821 19.372 21.8247 19.06 21.1101 19.06H20.5901V20.996H21.1261Z" fill="white"/>
</svg>
