<svg width="26" height="27" viewBox="0 0 26 27" fill="none" xmlns="http://www.w3.org/2000/svg">
<path d="M7.22087 2.26354C7.25726 2.21399 7.29139 2.16921 7.32288 2.12908C8.11723 2.53699 9.00055 2.85 10.2085 2.85C10.9359 2.85 11.7531 2.61236 12.3559 2.39548C12.6642 2.28454 12.9305 2.17381 13.1199 2.09069C13.1516 2.07679 13.1812 2.06364 13.2085 2.05137C13.2358 2.06364 13.2654 2.07679 13.2971 2.09069C13.4865 2.17381 13.7528 2.28454 14.0611 2.39548C14.6639 2.61236 15.4811 2.85 16.2085 2.85C17.4164 2.85 18.2998 2.53699 19.0941 2.12908C19.1256 2.16921 19.1597 2.21399 19.1961 2.26354C19.4114 2.55671 19.7063 3.01725 20.0038 3.66745C20.5981 4.96593 21.2085 7.03225 21.2085 10.05C21.2085 13.019 20.2511 15.1911 18.7796 16.7754C17.3292 18.337 15.3496 19.3586 13.2085 19.98C11.0674 19.3586 9.08778 18.337 7.63735 16.7754C6.16586 15.1911 5.2085 13.019 5.2085 10.05C5.2085 7.03225 5.81887 4.96593 6.41314 3.66745C6.71072 3.01725 7.00557 2.55671 7.22087 2.26354Z" fill="#5397F0" stroke="white"/>
<path d="M19.635 2.89807C20.0225 3.55865 20.4787 4.56789 20.7901 6H5.62672C5.93807 4.56789 6.39425 3.55864 6.78178 2.89806C6.99083 2.54173 7.18065 2.28557 7.31839 2.11831C8.10224 2.50749 9.00125 2.85 10.2084 2.85C10.9306 2.85 11.748 2.61222 12.3514 2.3956C12.6603 2.28473 12.9274 2.17408 13.1175 2.09103C13.1501 2.07681 13.1804 2.06339 13.2084 2.05088C13.2364 2.06339 13.2667 2.07681 13.2993 2.09102C13.4894 2.17407 13.7565 2.28473 14.0653 2.3956C14.6688 2.61222 15.4862 2.85 16.2084 2.85C17.4155 2.85 18.3145 2.50749 19.0984 2.11831C19.2361 2.28556 19.4259 2.54173 19.635 2.89807Z" fill="#F56C6C" stroke="white"/>
<rect x="2.2085" y="16" width="22" height="9" fill="#5397F0" stroke="white"/>
<path d="M8.20368 18.884H6.80368V23.5H5.62768V18.884H4.15568V17.964H8.33168L8.20368 18.884ZM10.6451 17.964C11.3651 17.964 11.9225 18.1133 12.3171 18.412C12.7171 18.7107 12.9171 19.156 12.9171 19.748C12.9171 20.3667 12.7198 20.8333 12.3251 21.148C11.9305 21.4573 11.4025 21.612 10.7411 21.612H10.1091V23.5H8.93312V17.964H10.6451ZM10.6451 20.748C10.9865 20.748 11.2478 20.6707 11.4291 20.516C11.6105 20.3613 11.7011 20.1053 11.7011 19.748C11.7011 19.124 11.3438 18.812 10.6291 18.812H10.1091V20.748H10.6451ZM14.8982 23.5H13.7222V17.964H14.8982V23.5ZM16.1942 20.46L18.1862 23.5H16.8102L14.9462 20.548L16.7862 17.964H18.0422L16.1942 20.46ZM21.8747 18.82H19.8747V20.26H21.6187V21.108H19.8747V22.636H22.0187V23.5H18.6987V17.964H22.0027L21.8747 18.82Z" fill="white"/>
</svg>
