<svg width="32" height="27" viewBox="0 0 32 27" fill="none" xmlns="http://www.w3.org/2000/svg">
<path d="M9.74528 2.26354C9.78167 2.21399 9.8158 2.16921 9.8473 2.12908C10.6416 2.53699 11.525 2.85 12.7329 2.85C13.4603 2.85 14.2775 2.61236 14.8803 2.39548C15.1886 2.28454 15.4549 2.17381 15.6443 2.09069C15.676 2.07679 15.7056 2.06364 15.7329 2.05137C15.7602 2.06364 15.7898 2.07679 15.8215 2.09069C16.011 2.17381 16.2772 2.28454 16.5855 2.39548C17.1883 2.61236 18.0055 2.85 18.7329 2.85C19.9409 2.85 20.8242 2.53699 21.6185 2.12908C21.65 2.16921 21.6841 2.21399 21.7205 2.26354C21.9358 2.55671 22.2307 3.01725 22.5283 3.66745C23.1225 4.96593 23.7329 7.03225 23.7329 10.05C23.7329 13.019 22.7755 15.1911 21.3041 16.7754C19.8536 18.337 17.874 19.3586 15.7329 19.98C13.5918 19.3586 11.6122 18.337 10.1618 16.7754C8.69028 15.1911 7.73291 13.019 7.73291 10.05C7.73291 7.03225 8.34329 4.96593 8.93756 3.66745C9.23513 3.01725 9.52998 2.55671 9.74528 2.26354Z" fill="#5397F0" stroke="white"/>
<path d="M22.1594 2.89807C22.547 3.55865 23.0031 4.56789 23.3145 6H8.15113C8.46248 4.56789 8.91867 3.55864 9.3062 2.89806C9.51524 2.54173 9.70507 2.28557 9.8428 2.11831C10.6266 2.50749 11.5257 2.85 12.7328 2.85C13.455 2.85 14.2724 2.61222 14.8758 2.3956C15.1847 2.28473 15.4518 2.17408 15.642 2.09103C15.6745 2.07681 15.7048 2.06339 15.7328 2.05088C15.7608 2.06339 15.7911 2.07681 15.8237 2.09102C16.0138 2.17407 16.2809 2.28473 16.5898 2.3956C17.1932 2.61222 18.0106 2.85 18.7328 2.85C19.9399 2.85 20.8389 2.50749 21.6228 2.11831C21.7605 2.28556 21.9504 2.54173 22.1594 2.89807Z" fill="#F56C6C" stroke="white"/>
<rect x="1.73291" y="16" width="28" height="9" fill="#5397F0" stroke="white"/>
<path d="M7.90779 18.884H6.50779V23.5H5.33179V18.884H3.85979V17.964H8.03579L7.90779 18.884ZM10.4132 21.332H9.81322V23.5H8.63722V17.964H10.3652C11.1066 17.964 11.6639 18.1027 12.0372 18.38C12.4106 18.652 12.5972 19.0653 12.5972 19.62C12.5972 19.9827 12.5066 20.2813 12.3252 20.516C12.1492 20.7507 11.8746 20.9507 11.5012 21.116L12.9332 23.5H11.5972L10.4132 21.332ZM9.81322 20.5H10.4292C10.7439 20.5 10.9812 20.4307 11.1412 20.292C11.3012 20.148 11.3812 19.924 11.3812 19.62C11.3812 19.3373 11.2959 19.132 11.1252 19.004C10.9599 18.8707 10.6986 18.804 10.3412 18.804H9.81322V20.5ZM17.6248 21.676C17.6248 22.0547 17.5448 22.3907 17.3848 22.684C17.2248 22.9773 16.9848 23.2093 16.6648 23.38C16.3501 23.5453 15.9661 23.628 15.5128 23.628C14.8301 23.628 14.3075 23.452 13.9448 23.1C13.5875 22.7427 13.4088 22.268 13.4088 21.676V17.964H14.5848V21.62C14.5848 21.9933 14.6595 22.2733 14.8088 22.46C14.9581 22.6413 15.1928 22.732 15.5128 22.732C15.8328 22.732 16.0675 22.6413 16.2168 22.46C16.3715 22.2733 16.4488 21.9933 16.4488 21.62V17.964H17.6248V21.676ZM20.9072 17.836C21.2538 17.836 21.5552 17.8867 21.8112 17.988C22.0672 18.084 22.3178 18.2333 22.5632 18.436L21.9792 19.116C21.6592 18.8547 21.3232 18.724 20.9712 18.724C20.5765 18.724 20.2618 18.8867 20.0272 19.212C19.7978 19.532 19.6832 20.036 19.6832 20.724C19.6832 21.396 19.7978 21.8947 20.0272 22.22C20.2618 22.54 20.5792 22.7 20.9792 22.7C21.1872 22.7 21.3765 22.6627 21.5472 22.588C21.7178 22.508 21.8965 22.396 22.0832 22.252L22.6272 22.932C22.4298 23.1347 22.1845 23.3027 21.8912 23.436C21.6032 23.564 21.2832 23.628 20.9312 23.628C20.4352 23.628 20.0005 23.516 19.6272 23.292C19.2538 23.068 18.9632 22.74 18.7552 22.308C18.5472 21.8707 18.4432 21.3427 18.4432 20.724C18.4432 20.1213 18.5498 19.604 18.7632 19.172C18.9765 18.7347 19.2698 18.404 19.6432 18.18C20.0165 17.9507 20.4378 17.836 20.9072 17.836ZM24.4695 23.5H23.2935V17.964H24.4695V23.5ZM25.7655 20.46L27.7575 23.5H26.3815L24.5175 20.548L26.3575 17.964H27.6135L25.7655 20.46Z" fill="white"/>
</svg>
