<svg width="28" height="27" viewBox="0 0 28 27" fill="none" xmlns="http://www.w3.org/2000/svg">
<path d="M7.79362 2.26354C7.83001 2.21399 7.86414 2.16921 7.89564 2.12908C8.68999 2.53699 9.5733 2.85 10.7812 2.85C11.5086 2.85 12.3258 2.61236 12.9286 2.39548C13.237 2.28454 13.5032 2.17381 13.6927 2.09069C13.7243 2.07679 13.7539 2.06364 13.7812 2.05137C13.8086 2.06364 13.8382 2.07679 13.8698 2.09069C14.0593 2.17381 14.3255 2.28454 14.6339 2.39548C15.2367 2.61236 16.0539 2.85 16.7812 2.85C17.9892 2.85 18.8725 2.53699 19.6669 2.12908C19.6984 2.16921 19.7325 2.21399 19.7689 2.26354C19.9842 2.55671 20.279 3.01725 20.5766 3.66745C21.1709 4.96593 21.7812 7.03225 21.7812 10.05C21.7812 13.019 20.8239 15.1911 19.3524 16.7754C17.902 18.337 15.9223 19.3586 13.7813 19.98C11.6402 19.3586 9.66053 18.337 8.21011 16.7754C6.73862 15.1911 5.78125 13.019 5.78125 10.05C5.78125 7.03225 6.39163 4.96593 6.9859 3.66745C7.28347 3.01725 7.57832 2.55671 7.79362 2.26354Z" fill="#5397F0" stroke="white"/>
<path d="M20.2078 2.89807C20.5953 3.55865 21.0515 4.56789 21.3628 6H6.19947C6.51082 4.56789 6.96701 3.55864 7.35454 2.89806C7.56358 2.54173 7.75341 2.28557 7.89114 2.11831C8.67499 2.50749 9.574 2.85 10.7811 2.85C11.5033 2.85 12.3207 2.61222 12.9242 2.3956C13.233 2.28473 13.5001 2.17408 13.6903 2.09103C13.7228 2.07681 13.7532 2.06339 13.7812 2.05088C13.8091 2.06339 13.8395 2.07681 13.872 2.09102C14.0622 2.17407 14.3293 2.28473 14.6381 2.3956C15.2416 2.61222 16.0589 2.85 16.7811 2.85C17.9883 2.85 18.8873 2.50749 19.6711 2.11831C19.8089 2.28556 19.9987 2.54173 20.2078 2.89807Z" fill="#F56C6C" stroke="white"/>
<rect x="1.78125" y="16" width="24" height="9" fill="#5397F0" stroke="white"/>
<path d="M6.32278 17.836C6.72278 17.836 7.06945 17.8947 7.36278 18.012C7.66145 18.124 7.93611 18.2973 8.18678 18.532L7.62678 19.18C7.42945 19.02 7.23211 18.9027 7.03478 18.828C6.83745 18.7533 6.62678 18.716 6.40278 18.716C6.15745 18.716 5.96011 18.7693 5.81078 18.876C5.66678 18.9773 5.59478 19.124 5.59478 19.316C5.59478 19.4493 5.62411 19.5587 5.68278 19.644C5.74678 19.7293 5.85611 19.8093 6.01078 19.884C6.16545 19.9587 6.39745 20.044 6.70678 20.14C7.25611 20.316 7.66678 20.5347 7.93878 20.796C8.21078 21.052 8.34678 21.42 8.34678 21.9C8.34678 22.2413 8.26145 22.5427 8.09078 22.804C7.92011 23.06 7.67211 23.2627 7.34678 23.412C7.02145 23.556 6.64011 23.628 6.20278 23.628C5.76545 23.628 5.37611 23.5587 5.03478 23.42C4.69345 23.2813 4.40011 23.092 4.15478 22.852L4.75478 22.188C4.96811 22.3693 5.18945 22.508 5.41878 22.604C5.64811 22.6947 5.89878 22.74 6.17078 22.74C6.45878 22.74 6.68811 22.6733 6.85878 22.54C7.03478 22.4067 7.12278 22.22 7.12278 21.98C7.12278 21.8307 7.09078 21.708 7.02678 21.612C6.96811 21.5107 6.86411 21.42 6.71478 21.34C6.56545 21.26 6.34945 21.1773 6.06678 21.092C5.46411 20.9053 5.03211 20.6813 4.77078 20.42C4.51478 20.1587 4.38678 19.8173 4.38678 19.396C4.38678 19.0867 4.46945 18.8147 4.63478 18.58C4.80011 18.34 5.02945 18.156 5.32278 18.028C5.61611 17.9 5.94945 17.836 6.32278 17.836ZM10.8702 17.964C11.5902 17.964 12.1476 18.1133 12.5422 18.412C12.9422 18.7107 13.1422 19.156 13.1422 19.748C13.1422 20.3667 12.9449 20.8333 12.5502 21.148C12.1556 21.4573 11.6276 21.612 10.9662 21.612H10.3342V23.5H9.15822V17.964H10.8702ZM10.8702 20.748C11.2116 20.748 11.4729 20.6707 11.6542 20.516C11.8356 20.3613 11.9262 20.1053 11.9262 19.748C11.9262 19.124 11.5689 18.812 10.8542 18.812H10.3342V20.748H10.8702ZM18.0833 21.676C18.0833 22.0547 18.0033 22.3907 17.8433 22.684C17.6833 22.9773 17.4433 23.2093 17.1233 23.38C16.8086 23.5453 16.4246 23.628 15.9713 23.628C15.2886 23.628 14.7659 23.452 14.4033 23.1C14.0459 22.7427 13.8673 22.268 13.8673 21.676V17.964H15.0433V21.62C15.0433 21.9933 15.1179 22.2733 15.2673 22.46C15.4166 22.6413 15.6513 22.732 15.9713 22.732C16.2913 22.732 16.5259 22.6413 16.6753 22.46C16.8299 22.2733 16.9073 21.9933 16.9073 21.62V17.964H18.0833V21.676ZM20.9577 21.332H20.3577V23.5H19.1817V17.964H20.9097C21.651 17.964 22.2083 18.1027 22.5817 18.38C22.955 18.652 23.1417 19.0653 23.1417 19.62C23.1417 19.9827 23.051 20.2813 22.8697 20.516C22.6937 20.7507 22.419 20.9507 22.0457 21.116L23.4777 23.5H22.1417L20.9577 21.332ZM20.3577 20.5H20.9737C21.2883 20.5 21.5257 20.4307 21.6857 20.292C21.8457 20.148 21.9257 19.924 21.9257 19.62C21.9257 19.3373 21.8403 19.132 21.6697 19.004C21.5043 18.8707 21.243 18.804 20.8857 18.804H20.3577V20.5Z" fill="white"/>
</svg>
