<svg width="20" height="27" viewBox="0 0 20 27" fill="none" xmlns="http://www.w3.org/2000/svg">
<path d="M4.46379 2.51158C4.50018 2.46204 4.53431 2.41725 4.5658 2.37713C5.36015 2.78504 6.24347 3.09805 7.45142 3.09805C8.17882 3.09805 8.99599 2.86041 9.59881 2.64352C9.90715 2.53259 10.1734 2.42185 10.3628 2.33873C10.3945 2.32484 10.4241 2.31169 10.4514 2.29942C10.4787 2.31169 10.5083 2.32484 10.54 2.33873C10.7295 2.42185 10.9957 2.53259 11.304 2.64352C11.9068 2.86041 12.724 3.09805 13.4514 3.09805C14.6594 3.09805 15.5427 2.78504 16.337 2.37713C16.3685 2.41725 16.4027 2.46204 16.439 2.51158C16.6543 2.80476 16.9492 3.2653 17.2468 3.9155C17.841 5.21398 18.4514 7.2803 18.4514 10.298C18.4514 13.267 17.4941 15.4391 16.0226 17.0234C14.5721 18.585 12.5925 19.6067 10.4514 20.228C8.31034 19.6067 6.3307 18.585 4.88027 17.0234C3.40878 15.4391 2.45142 13.267 2.45142 10.298C2.45142 7.2803 3.06179 5.21398 3.65606 3.9155C3.95364 3.2653 4.24849 2.80476 4.46379 2.51158Z" fill="#53C2AE" stroke="white"/>
<path d="M16.8779 3.14612C17.2655 3.80669 17.7217 4.81594 18.033 6.24805H2.86964C3.18099 4.81593 3.63717 3.80669 4.0247 3.14611C4.23375 2.78978 4.42357 2.53361 4.56131 2.36636C5.34516 2.75554 6.24417 3.09805 7.45129 3.09805C8.17351 3.09805 8.99088 2.86027 9.59435 2.64364C9.90319 2.53278 10.1703 2.42212 10.3605 2.33907C10.393 2.32486 10.4234 2.31143 10.4513 2.29893C10.4793 2.31143 10.5096 2.32486 10.5422 2.33907C10.7323 2.42212 10.9994 2.53278 11.3083 2.64364C11.9117 2.86027 12.7291 3.09805 13.4513 3.09805C14.6584 3.09805 15.5574 2.75553 16.3413 2.36635C16.479 2.53361 16.6689 2.78977 16.8779 3.14612Z" fill="#53C2AE" stroke="white"/>
<rect x="3.45142" y="16.248" width="14" height="9" fill="#53C2AE" stroke="white"/>
<path d="M8.94945 20.82C9.32278 20.8894 9.62411 21.0254 9.85345 21.228C10.0881 21.4254 10.2054 21.7294 10.2054 22.14C10.2054 22.7214 9.99745 23.1347 9.58145 23.38C9.16545 23.6254 8.58678 23.748 7.84545 23.748H6.11745V18.212H7.62945C8.38678 18.212 8.96545 18.324 9.36545 18.548C9.76545 18.772 9.96545 19.132 9.96545 19.628C9.96545 19.9534 9.86678 20.2174 9.66945 20.42C9.47745 20.6174 9.23745 20.7507 8.94945 20.82ZM7.29345 19.06V20.46H7.86945C8.15745 20.46 8.37878 20.4014 8.53345 20.284C8.68811 20.1614 8.76545 19.9774 8.76545 19.732C8.76545 19.4867 8.68278 19.3134 8.51745 19.212C8.35211 19.1107 8.09345 19.06 7.74145 19.06H7.29345ZM7.85345 22.876C8.22145 22.876 8.50145 22.8227 8.69345 22.716C8.88545 22.604 8.98145 22.396 8.98145 22.092C8.98145 21.5374 8.64011 21.26 7.95745 21.26H7.29345V22.876H7.85345ZM12.8153 21.58H12.2153V23.748H11.0393V18.212H12.7673C13.5087 18.212 14.066 18.3507 14.4393 18.628C14.8127 18.9 14.9993 19.3134 14.9993 19.868C14.9993 20.2307 14.9087 20.5294 14.7273 20.764C14.5513 20.9987 14.2767 21.1987 13.9033 21.364L15.3353 23.748H13.9993L12.8153 21.58ZM12.2153 20.748H12.8313C13.146 20.748 13.3833 20.6787 13.5433 20.54C13.7033 20.396 13.7833 20.172 13.7833 19.868C13.7833 19.5854 13.698 19.38 13.5273 19.252C13.362 19.1187 13.1007 19.052 12.7433 19.052H12.2153V20.748Z" fill="white"/>
</svg>
