<svg width="22" height="27" viewBox="0 0 22 27" fill="none" xmlns="http://www.w3.org/2000/svg">
<path d="M4.89079 2.26354C4.92718 2.21399 4.96131 2.16921 4.99281 2.12908C5.78716 2.53699 6.67047 2.85 7.87842 2.85C8.60582 2.85 9.42299 2.61236 10.0258 2.39548C10.3341 2.28454 10.6004 2.17381 10.7898 2.09069C10.8215 2.07679 10.8511 2.06364 10.8784 2.05137C10.9057 2.06364 10.9353 2.07679 10.967 2.09069C11.1565 2.17381 11.4227 2.28454 11.731 2.39548C12.3338 2.61236 13.151 2.85 13.8784 2.85C15.0864 2.85 15.9697 2.53699 16.764 2.12908C16.7955 2.16921 16.8297 2.21399 16.866 2.26354C17.0813 2.55671 17.3762 3.01725 17.6738 3.66745C18.268 4.96593 18.8784 7.03225 18.8784 10.05C18.8784 13.019 17.9211 15.1911 16.4496 16.7754C14.9991 18.337 13.0195 19.3586 10.8784 19.98C8.73735 19.3586 6.7577 18.337 5.30727 16.7754C3.83578 15.1911 2.87842 13.019 2.87842 10.05C2.87842 7.03225 3.4888 4.96593 4.08307 3.66745C4.38064 3.01725 4.67549 2.55671 4.89079 2.26354Z" fill="#5397F0" stroke="white"/>
<path d="M17.3049 2.89807C17.6925 3.55865 18.1487 4.56789 18.46 6H3.29664C3.60799 4.56789 4.06418 3.55864 4.45171 2.89806C4.66075 2.54173 4.85057 2.28557 4.98831 2.11831C5.77216 2.50749 6.67117 2.85 7.8783 2.85C8.60051 2.85 9.41788 2.61222 10.0213 2.3956C10.3302 2.28473 10.5973 2.17408 10.7875 2.09103C10.82 2.07681 10.8504 2.06339 10.8783 2.05088C10.9063 2.06339 10.9366 2.07681 10.9692 2.09102C11.1593 2.17407 11.4264 2.28473 11.7353 2.3956C12.3387 2.61222 13.1561 2.85 13.8783 2.85C15.0854 2.85 15.9844 2.50749 16.7683 2.11831C16.906 2.28556 17.0959 2.54173 17.3049 2.89807Z" fill="#F56C6C" stroke="white"/>
<rect x="1.87842" y="16" width="18" height="9" fill="#5397F0" stroke="white"/>
<path d="M8.10326 18.82H6.10326V20.26H7.84726V21.108H6.10326V22.636H8.24726V23.5H4.92726V17.964H8.23126L8.10326 18.82ZM13.1538 23.5H11.8578L10.8258 21.308L9.80982 23.5H8.55382L10.1298 20.556L8.68182 17.964H9.96982L10.8418 19.812L11.7538 17.964H13.0018L11.5378 20.516L13.1538 23.5ZM17.2681 18.884H15.8681V23.5H14.6921V18.884H13.2201V17.964H17.3961L17.2681 18.884Z" fill="white"/>
</svg>
